<svg width="265" height="213" viewBox="0 0 265 213" fill="none" xmlns="http://www.w3.org/2000/svg">
<g filter="url(#filter0_di)">
<path fill-rule="evenodd" clip-rule="evenodd" d="M58.7707 53.4534C47.7142 53.6814 44.0742 68.387 53.7477 73.7462L99.954 99.3447C101.625 100.271 103.512 100.738 105.422 100.698L154.374 99.6949C165.438 99.4681 169.073 84.7466 159.386 79.3956L113.039 53.7942C111.37 52.8724 109.488 52.4077 107.582 52.447L58.7707 53.4534Z" fill="#A4F7F7"/>
</g>
<g opacity="0.12">
<path d="M77.9394 58.834L80.7749 60.5394L95.9316 58.7548L93.6087 57.3577L88.9746 55.6221L85.7115 56.0063L89.6012 57.4609L77.9394 58.834Z" fill="#323232"/>
<path d="M89.9601 60.6135C85.4666 61.1426 84.5336 62.877 88.0259 64.9774C91.5183 67.0779 96.9529 68.051 101.446 67.5219C105.94 66.9928 106.871 65.2701 103.379 63.1697C99.8864 61.0693 94.4537 60.0844 89.9601 60.6135ZM100.276 63.535C102.118 64.6431 101.303 65.4994 98.6109 65.8165C95.9005 66.1356 92.9709 65.7201 91.1286 64.6121C89.2863 63.5041 90.1013 62.6477 92.8117 62.3286C95.4864 62.0136 98.4338 62.427 100.276 63.535Z" fill="#323232"/>
<path d="M102.871 68.379C98.3779 68.9081 97.4449 70.6424 100.937 72.7429C104.43 74.8433 109.864 75.8164 114.358 75.2873C118.851 74.7582 119.782 73.0356 116.29 70.9351C112.798 68.8347 107.365 67.8499 102.871 68.379ZM113.187 71.3005C115.03 72.4085 114.215 73.2649 111.522 73.5819C108.812 73.901 105.882 73.4856 104.04 72.3775C102.198 71.2695 103.013 70.4131 105.723 70.094C108.398 69.7791 111.345 70.1924 113.187 71.3005Z" fill="#323232"/>
<path d="M119.154 75.5685C116.889 75.8352 116.683 76.9424 118.638 78.1179C120.608 79.303 123.826 80.0072 126.09 79.7405C128.319 79.4781 128.543 78.3687 126.573 77.1836C124.618 76.0081 121.383 75.3061 119.154 75.5685ZM115.293 81.2999L135.48 82.5407L132.644 80.8353L112.457 79.5945L115.293 81.2999ZM123.737 77.5174C124.282 77.845 124.199 78.1543 123.575 78.2278C122.933 78.3034 122.035 78.1096 121.491 77.782C120.978 77.4737 121.027 77.1568 121.669 77.0812C122.293 77.0078 123.225 77.2091 123.737 77.5174ZM121.805 82.4341C119.541 82.7007 119.335 83.808 121.289 84.9835C123.26 86.1686 126.477 86.8727 128.742 86.6061C130.971 86.3436 131.195 85.2343 129.224 84.0492C127.27 82.8737 124.034 82.1716 121.805 82.4341ZM126.389 84.383C126.934 84.7106 126.851 85.0199 126.227 85.0934C125.585 85.1689 124.687 84.9751 124.142 84.6475C123.63 84.3392 123.679 84.0224 124.32 83.9468C124.945 83.8733 125.876 84.0747 126.389 84.383Z" fill="#323232"/>
</g>
<defs>
<filter id="filter0_di" x="0.356295" y="-2.5086" width="263.844" height="215.035" filterUnits="userSpaceOnUse" color-interpolation-filters="sRGB">
<feFlood flood-opacity="0" result="BackgroundImageFix"/>
<feColorMatrix in="SourceAlpha" type="matrix" values="0 0 0 0 0 0 0 0 0 0 0 0 0 0 0 0 0 0 127 0"/>
<feOffset dx="25.7108" dy="28.4172"/>
<feGaussianBlur stdDeviation="33.8299"/>
<feColorMatrix type="matrix" values="0 0 0 0 0.153646 0 0 0 0 0.7375 0 0 0 0 0.520065 0 0 0 1 0"/>
<feBlend mode="normal" in2="BackgroundImageFix" result="effect1_dropShadow"/>
<feBlend mode="normal" in="SourceGraphic" in2="effect1_dropShadow" result="shape"/>
<feColorMatrix in="SourceAlpha" type="matrix" values="0 0 0 0 0 0 0 0 0 0 0 0 0 0 0 0 0 0 127 0" result="hardAlpha"/>
<feOffset dy="13.532"/>
<feGaussianBlur stdDeviation="27.064"/>
<feComposite in2="hardAlpha" operator="arithmetic" k2="-1" k3="1"/>
<feColorMatrix type="matrix" values="0 0 0 0 0.514063 0 0 0 0 0.895448 0 0 0 0 0.979167 0 0 0 0.25 0"/>
<feBlend mode="normal" in2="shape" result="effect2_innerShadow"/>
</filter>
</defs>
</svg>
