<svg width="41" height="48" viewBox="0 0 41 48" fill="none" xmlns="http://www.w3.org/2000/svg">
<path fill-rule="evenodd" clip-rule="evenodd" d="M19.2671 0.0657428C19.163 0.0940669 18.7066 0.188016 18.253 0.274671C17.7992 0.361185 17.2442 0.579084 17.0195 0.758704C16.7947 0.938464 16.0735 1.24736 15.4165 1.44535C9.29694 3.28852 3.89827 8.88828 1.49346 15.8868C0.42205 19.0046 -0.0111328 21.6343 0.000216932 24.951C0.0406975 36.7634 6.5401 45.8386 16.3351 47.7597C17.9819 48.0828 21.1203 48.0796 22.7666 47.7531C28.8328 46.5503 34.2284 42.3581 37.5864 36.2385C39.0303 33.6072 39.9754 30.8937 40.6665 27.3947C41.0678 25.3636 41.1173 20.5299 40.7585 18.4308C39.5342 11.271 35.6693 5.32098 30.2733 2.28932C28.7584 1.43834 25.9647 0.454709 24.3353 0.19881C23.1954 0.0197515 19.7667 -0.070269 19.2671 0.0657428ZM24.3813 3.13386C26.0966 3.59532 27.1774 4.10866 28.7183 5.19367C32.5761 7.90997 35.2021 12.1197 36.4946 17.6596C36.9073 19.4288 37.0715 24.7112 36.7793 26.8097C35.6683 34.7827 30.9228 41.538 24.6582 44.0644C21.164 45.4736 17.247 45.394 14.0203 43.8479C4.0757 39.0834 0.528549 24.6274 6.43058 12.916C8.521 8.76797 11.907 5.27233 15.5762 3.47487C16.776 2.88693 17.1002 2.78948 17.6592 2.84823C18.0233 2.88651 18.832 2.86394 19.4562 2.79817C21.0501 2.63019 23.0045 2.7634 24.3813 3.13386ZM21.4464 11.1851C21.0127 11.5066 20.882 11.7636 20.7516 12.5522C20.6635 13.0863 20.6141 18.5639 20.6419 24.7248C20.6871 34.7002 20.7261 35.9787 20.9985 36.4042C21.7334 37.5523 23.9732 37.5663 24.7675 36.4277C25.0443 36.0309 25.053 35.3862 24.861 29.4541C24.4783 17.6316 24.1459 12.4054 23.7247 11.5843C23.5172 11.1797 22.8328 10.7889 22.3317 10.7889C22.1387 10.7889 21.7404 10.9672 21.4464 11.1851Z" fill="#323232"/>
</svg>
