<svg width="54" height="57" viewBox="0 0 54 57" fill="none" xmlns="http://www.w3.org/2000/svg">
<path fill-rule="evenodd" clip-rule="evenodd" d="M30.1241 0.31767C29.8537 0.373415 29.4864 0.50935 29.3079 0.619811C29.1292 0.730241 28.0743 0.847167 26.9635 0.879499C19.1638 1.107 11.6575 5.31834 6.61933 12.2932C2.48607 18.0152 0.491257 24.6807 0.823922 31.6578C1.29908 41.6182 6.70498 50.2901 14.9809 54.3679C19.8839 56.7837 25.2854 57.4061 30.761 56.1862C42.6486 53.5377 52.0271 42.3589 53.0725 29.5913C53.6632 22.3795 51.9996 15.8455 48.2039 10.4682C45.2069 6.22256 41.0154 2.99161 36.49 1.43851C34.7653 0.846449 30.8779 0.162199 30.1241 0.31767ZM29.2983 3.33643C29.5024 3.49227 30.7088 3.84752 31.979 4.12597C37.3915 5.31257 41.2581 7.7743 44.466 12.0757C48.2718 17.1787 49.7671 23.1944 48.9045 29.932C48.3213 34.4875 47.0452 38.0989 44.7264 41.7555C39.9845 49.2336 31.6878 53.7452 23.7781 53.1469C17.7648 52.6922 12.8258 50.0665 9.17898 45.3861C4.2691 39.0847 2.84227 30.6019 5.29984 22.3228C6.32816 18.8587 7.5069 16.4389 9.55123 13.5953C13.7551 7.74765 19.9977 3.95892 26.7817 3.13788C28.4928 2.93076 28.798 2.95484 29.2983 3.33643ZM33.2854 17.061C32.3847 17.0952 30.4235 17.2325 28.9272 17.3662C27.4309 17.4999 24.9367 17.7093 23.3846 17.8315C21.8324 17.9537 20.3691 18.1161 20.1328 18.1927C18.9065 18.5889 18.403 19.7295 18.6585 21.532C18.7286 22.0264 18.8212 23.5508 18.8642 24.9196C18.9814 28.6471 19.3181 29.8394 20.5426 30.8616C21.6455 31.7824 22.4075 31.7066 26.3621 30.2834C29.114 29.2929 32.0335 29.1472 34.6808 29.8679C36.282 30.3037 36.6108 30.6998 36.5039 32.0638C36.4098 33.2669 35.838 34.1902 34.3809 35.4918C30.3039 39.1339 25.5123 40.3126 17.0827 39.7464C15.8303 39.6624 14.7738 39.6714 14.7345 39.7665C14.6193 40.0459 16.5937 41.2804 18.4261 42.075C19.9244 42.7247 20.3977 42.8457 22.4673 43.1077C25.0692 43.4373 26.7388 43.3358 29.2052 42.6986C32.8758 41.7504 37.0614 38.9212 39.0916 36.0162C40.0457 34.6509 40.5841 32.1418 40.2558 30.5895C39.9915 29.3391 39.0201 27.9081 37.9812 27.2385C36.8487 26.5087 34.6969 25.9485 32.5372 25.821C29.6275 25.6494 27.1979 26.0516 24.3648 27.174C22.619 27.8657 22.6269 27.8713 22.6211 25.9317C22.619 25.2177 22.5768 23.8828 22.5275 22.9655C22.4782 22.0483 22.5091 21.2565 22.5965 21.2061C22.6837 21.1557 24.5242 20.8356 26.6866 20.4948C38.1042 18.6955 37.4899 18.8142 37.6289 18.3801C37.7 18.1577 37.6771 17.8424 37.5777 17.6791C37.3276 17.2678 35.3491 16.983 33.2854 17.061Z" fill="#323232"/>
</svg>
