<svg width="38" height="34" viewBox="0 0 38 34" fill="none" xmlns="http://www.w3.org/2000/svg">
<path d="M36.825 15.6154L36.8253 15.6157C37.2541 15.9832 37.3054 16.6262 36.9475 17.0557L36.9453 17.0584C36.5777 17.4872 35.9333 17.5391 35.5033 17.1711L36.825 15.6154ZM36.825 15.6154L30.3167 10.0575L30.3178 10.0509V10.0302V2.63905H30.3178L30.3178 2.63466C30.3077 2.06161 29.8544 1.59755 29.2802 1.57741L29.2802 1.57725H29.2715H25.5759C24.9986 1.57725 24.5527 2.08242 24.5527 2.63905V5.159L19.6703 0.996462C19.6701 0.996274 19.6699 0.996087 19.6697 0.9959C19.2885 0.666786 18.726 0.669806 18.3407 0.994325L18.3407 0.994322L18.3396 0.995231L1.18568 15.6058C0.74315 15.9681 0.698523 16.6122 1.05141 17.0458L1.2453 16.8879L1.05141 17.0458C1.41337 17.4904 2.05894 17.5358 2.49324 17.1823L2.50316 17.1743L2.5122 17.1652L2.51993 17.1575L2.52058 17.1568L19.0042 3.12207L24.803 8.06346L24.8031 8.06355L35.5026 17.1705L36.825 15.6154ZM18.3407 5.43204L18.3394 5.43319L4.59305 17.1771L4.59274 17.1774C4.16417 17.5447 4.11204 18.1886 4.47945 18.6187C4.83936 19.0491 5.47716 19.1009 5.89963 18.7402L5.90712 18.7338L5.91408 18.7269L5.91539 18.7256L6.46147 18.2538V32.2037H6.46143L6.46151 32.2081C6.47164 32.7757 6.9358 33.2398 7.50334 33.25L7.50334 33.25H7.5078L30.4931 33.25L30.4976 33.25C31.0635 33.2399 31.5293 32.785 31.5394 32.2081L31.5394 32.2081V32.2037V18.2538L32.0924 18.7315L32.0924 18.7316L32.0958 18.7344C32.2746 18.8834 32.5001 18.9779 32.7507 18.9779C33.0487 18.9779 33.3338 18.8449 33.5275 18.6207L33.5278 18.6204C33.9046 18.1824 33.8452 17.5363 33.4145 17.1762C33.4141 17.1759 33.4137 17.1755 33.4133 17.1751L19.6704 5.43418C19.6702 5.434 19.67 5.43382 19.6698 5.43365C19.2886 5.1045 18.7261 5.10752 18.3407 5.43204ZM26.599 6.90648V3.63126H28.2638V8.30966L26.599 6.90648ZM16.1618 31.196V23.3461H21.8469V31.196H16.1618ZM23.8931 31.196V22.3462C23.8931 21.8063 23.4866 21.2999 22.9009 21.2999H15.1077C14.5221 21.2999 14.1155 21.8063 14.1155 22.3462V31.196H8.50774V16.5008L19.0043 7.55979L29.5009 16.5008V31.196H23.8931Z" fill="white" stroke="white" stroke-width="0.5"/>
</svg>
