<svg width="165" height="59" viewBox="0 0 165 59" fill="none" xmlns="http://www.w3.org/2000/svg">
<path fill-rule="evenodd" clip-rule="evenodd" d="M164.214 8.83454C164.475 8.38125 164.761 8.06043 164.861 8.11277C164.952 8.16834 164.817 8.57612 164.556 9.02942C164.295 9.48271 163.999 9.80677 163.909 9.7512C163.818 9.69564 163.953 9.28784 164.214 8.83454ZM64.739 11.623C65.2561 11.497 65.7217 11.4617 66.1075 11.5193C66.5674 11.487 66.9579 11.5452 67.2564 11.6905C66.7416 11.813 66.2767 11.8483 65.888 11.7943C65.4268 11.8281 65.036 11.7698 64.739 11.623ZM71.8851 12.295C71.3111 11.9881 70.544 11.8609 69.6316 11.9214C69.8751 12.1138 70.2199 12.2197 70.645 12.2329C70.9789 12.3439 71.4006 12.365 71.8851 12.295ZM73.9679 12.8467C74.4182 12.8271 74.7965 12.8983 75.0806 13.056C75.4541 13.128 75.7386 13.2898 75.9172 13.5318C75.4678 13.5503 75.0898 13.4792 74.8045 13.3225C74.4277 13.2538 74.1428 13.0918 73.9679 12.8467ZM79.4038 15.2901C79.0463 14.8103 78.4781 14.4906 77.7329 14.3502C77.8612 14.6268 78.0958 14.8298 78.4234 14.9477C78.6517 15.1521 78.9856 15.2688 79.4038 15.2901ZM80.9209 16.3447C81.3014 16.4098 81.5921 16.5668 81.7753 16.8061C82.0564 16.9657 82.2386 17.2078 82.3115 17.5184C81.9356 17.4505 81.648 17.2927 81.4657 17.0545C81.1824 16.8955 80.9974 16.6544 80.9209 16.3447ZM83.5628 18.7999C83.6462 18.733 83.847 18.8328 84.0065 19.0152C84.1661 19.1975 84.2158 19.405 84.1297 19.4696C84.0436 19.5342 83.8396 19.4415 83.686 19.2543C83.5324 19.0672 83.4767 18.8645 83.5628 18.7999ZM60.8123 11.7014C60.036 11.7934 59.3604 11.9306 59.311 12.0063C59.6737 12.0866 60.1181 12.0771 60.6184 11.9784C61.3791 11.9124 62.0364 11.7989 62.0946 11.7207C61.7421 11.6259 61.3065 11.6194 60.8123 11.7014ZM53.3986 13.1372C53.4366 13.0617 54.1443 12.8538 54.9765 12.672C55.5079 12.5197 55.9958 12.4539 56.4123 12.4782C56.3628 12.5539 55.661 12.757 54.8316 12.9411C54.301 13.0948 53.8138 13.1614 53.3986 13.1372ZM48.7629 14.3512C47.8739 14.6415 47.1455 14.92 47.1221 14.9882C47.0809 15.0708 47.7725 14.8983 48.6615 14.6079C49.181 14.4765 49.7387 14.26 50.3022 13.9709C50.3343 13.9001 49.6519 14.0608 48.7629 14.3512ZM40.5682 17.5735C41.1257 17.2339 41.6946 16.9596 42.2402 16.7675C43.1508 16.3878 43.8809 16.1304 43.8781 16.1866C43.3191 16.523 42.7502 16.796 42.2034 16.9904C41.2836 17.3819 40.5535 17.6393 40.5682 17.5735ZM35.5752 19.8749C35.0133 20.1287 34.4456 20.4571 33.9068 20.8401C34.4457 20.6656 35.0119 20.41 35.5732 20.0879C36.1351 19.8341 36.7029 19.5058 37.2417 19.1228C36.7032 19.2956 36.1365 19.5514 35.5752 19.8749ZM27.3063 24.7538C27.8112 24.3352 28.3612 23.9567 28.925 23.6397C29.4705 23.2662 30.0404 22.9498 30.6004 22.7095C30.0945 23.1271 29.545 23.5053 28.9816 23.8237C28.4356 24.1953 27.8664 24.5113 27.3063 24.7538ZM20.9333 29.2857C21.8658 28.4092 22.9417 27.6095 24.0642 26.9585C23.0892 27.8024 22.0319 28.5883 20.9333 29.2857ZM15.0887 34.2895C15.9084 33.387 16.8777 32.5175 17.9366 31.735C17.5657 32.1922 17.1115 32.6422 16.6018 33.0576C16.1492 33.5012 15.6353 33.9195 15.0887 34.2895ZM11.0862 38.2292C10.6308 38.671 10.2481 39.1311 9.9615 39.5813C10.4703 39.1687 10.9273 38.7226 11.3072 38.2678C11.7601 37.8256 12.1423 37.3662 12.4319 36.9158C11.9196 37.3265 11.4615 37.7737 11.0862 38.2292ZM5.71758 44.969C5.64023 44.9726 6.02428 44.3767 6.58464 43.6258C6.87268 43.1739 7.25748 42.7121 7.7153 42.269C7.23367 43.1504 6.5535 44.0677 5.71483 44.9667L5.71758 44.969ZM3.11461 48.9774C2.7213 49.7022 2.47 50.2726 2.55698 50.2478C2.94212 49.7921 3.2382 49.3357 3.42679 48.9069C3.81963 48.1915 4.07092 47.6211 3.99037 47.6317C3.60707 48.0887 3.30949 48.5459 3.11461 48.9774ZM0.705093 55.1877C0.63063 54.875 0.684952 54.49 0.863983 54.0617C1.07465 53.389 1.3667 52.8039 1.45093 52.7768C1.53516 52.7497 1.39786 53.2691 1.19589 53.9394C0.993912 54.6096 0.798477 55.1487 0.705093 55.1877ZM0.149506 58.04C0.137802 58.3328 0.211304 58.5212 0.305161 58.4729C0.401764 58.4269 0.480728 58.1611 0.495178 57.8707C0.509628 57.5802 0.438858 57.3941 0.339508 57.4378C0.240158 57.4815 0.161209 57.7473 0.149506 58.04ZM113.174 37.8433C113.223 37.7492 112.93 37.4433 112.504 37.1455C112.079 36.8478 111.664 36.7094 111.612 36.7764C111.56 36.8433 111.84 37.1761 112.282 37.4741C112.725 37.7721 113.108 37.954 113.174 37.8433ZM118.417 39.9411C119.044 40.0498 119.65 40.258 120.213 40.5577L120.202 40.5779C118.912 40.6018 117.644 40.2406 116.56 39.5404C117.196 39.572 117.824 39.7073 118.417 39.9411ZM127.78 40.7064C127.151 40.5949 126.508 40.5897 125.877 40.6911C124.839 40.7499 123.995 40.815 123.986 40.9301C124.606 41.1233 125.261 41.1715 125.901 41.0709C126.952 41.019 127.792 40.815 127.78 40.7064ZM133.259 39.2585C134.253 38.9382 135.069 38.7135 135.112 38.8123C135.151 38.9179 134.396 39.3197 133.378 39.6362C132.361 39.9527 131.516 40.0856 131.493 39.9802C131.471 39.8749 132.265 39.5787 133.259 39.2585ZM141.89 35.4199C141.827 35.3275 141.046 35.6645 140.123 36.2094C139.537 36.4679 139.008 36.8397 138.566 37.3035C138.615 37.4058 139.399 37.0621 140.315 36.5476C140.913 36.2857 141.449 35.9015 141.89 35.4199ZM146.356 31.9112C146.809 31.4567 147.349 31.0985 147.944 30.8581C147.593 31.3964 147.138 31.8593 146.606 32.2198C146.152 32.6749 145.609 33.0321 145.011 33.2693C145.369 32.7349 145.825 32.2739 146.356 31.9112ZM152.672 25.5742C152.118 25.9002 151.635 26.334 151.251 26.8498C150.775 27.2812 150.392 27.8057 150.127 28.3909C150.685 28.0697 151.169 27.6351 151.548 27.1152C152.024 26.6835 152.407 26.1591 152.672 25.5742ZM156.561 20.8001C156.889 20.2485 157.322 19.7662 157.835 19.3799C157.634 19.9916 157.307 20.5543 156.875 21.0318C156.552 21.5876 156.119 22.071 155.601 22.4519C155.806 21.8421 156.132 21.2802 156.561 20.8001ZM161.959 13.0142C161.071 13.9357 160.385 15.0329 159.946 16.2352C160.434 15.8205 160.833 15.3101 161.117 14.7356C161.515 14.227 161.802 13.6406 161.959 13.0142Z" fill="url(#paint0_linear)"/>
<path d="M86.3671 45.8241C99.0211 45.8241 109.279 35.566 109.279 22.912C109.279 10.2581 99.0211 0 86.3671 0C73.7132 0 63.4551 10.2581 63.4551 22.912C63.4551 35.566 73.7132 45.8241 86.3671 45.8241Z" fill="#3780EF"/>
<path d="M84.2542 16.5387C83.7949 16.1783 83.2615 15.9215 82.6913 15.7864C82.1211 15.6514 81.528 15.6412 80.9534 15.7567C80.3788 15.8722 79.8367 16.1106 79.3652 16.4551C78.8936 16.7996 78.504 17.2419 78.2236 17.751C77.955 18.2358 77.8643 18.7975 77.9669 19.3409C78.0695 19.8842 78.359 20.3757 78.7864 20.7321C80.9373 22.8188 85.4502 27.0023 87.4102 28.8207C87.9398 29.3194 88.5762 29.6937 89.2723 29.9156C89.9684 30.1375 90.7061 30.2015 91.4306 30.1026C91.9986 30.0211 92.5436 29.8247 93.0313 29.5254C93.519 29.2262 93.939 28.8307 94.265 28.3636C96.4862 25.3826 91.1793 23.0176 91.1793 23.0176L88.8575 25.4223L83.4501 20.265L85.8221 17.6814L84.2542 16.5387Z" fill="white"/>
<defs>
<linearGradient id="paint0_linear" x1="165" y1="8.42286" x2="5.99977" y2="61.9229" gradientUnits="userSpaceOnUse">
<stop stop-color="#885FFC"/>
<stop offset="1" stop-color="#885FFC"/>
</linearGradient>
</defs>
</svg>
