<svg width="150" height="38" viewBox="0 0 201 51" fill="none" xmlns="http://www.w3.org/2000/svg">
<g filter="url(#filter0_d)">
<path opacity="0.2" fill-rule="evenodd" clip-rule="evenodd" d="M34.3228 28.3091C35.4228 26.5011 36.0564 24.378 36.0564 22.1069C36.0564 15.507 30.7062 10.1568 24.1063 10.1568C17.5065 10.1568 12.1562 15.507 12.1562 22.1069C12.1562 28.7067 17.5065 34.0569 24.1063 34.0569C26.3774 34.0569 28.5005 33.4234 30.3086 32.3234L29.8301 32.8019L34.41 37.3818C35.7978 38.7697 37.8796 38.7697 39.2675 37.3818C40.5166 35.994 40.5166 33.9122 39.2675 32.5243L34.6876 27.9444L34.3228 28.3091Z" fill="white"/>
<circle opacity="0.2" cx="24.1677" cy="22.1677" r="16.1677" fill="white"/>
<path d="M22.5455 18.385C23.3535 18.2119 23.8682 17.4165 23.695 16.6085C23.5219 15.8005 22.7265 15.2858 21.9185 15.4589C20.28 15.81 18.6445 17.3128 17.7382 19.1697C16.7811 21.1306 16.5135 23.7059 17.8859 26.3591C18.2656 27.0931 19.1684 27.3804 19.9024 27.0007C20.6364 26.6211 20.9236 25.7183 20.5439 24.9843C19.6534 23.2627 19.8383 21.6894 20.4275 20.4823C21.0674 19.1712 22.072 18.4865 22.5455 18.385Z" fill="url(#paint0_linear)"/>
<path fill-rule="evenodd" clip-rule="evenodd" d="M34.6881 27.9445L39.268 32.5244C40.5171 33.9122 40.5171 35.994 39.268 37.3819C37.8802 38.7697 35.7984 38.7697 34.4105 37.3819L29.8306 32.802C28.1652 33.6347 26.2222 34.1898 24.2792 34.1898C17.7563 34.1898 12.4824 28.916 12.4824 22.393C12.4824 15.8701 17.7563 10.5963 24.2792 10.5963C30.8021 10.5963 36.076 15.8701 36.076 22.393C36.076 24.336 35.5208 26.279 34.6881 27.9445ZM15.2581 22.393C15.2581 27.3893 19.2829 31.4141 24.2792 31.4141C29.2755 31.4141 33.3003 27.3893 33.3003 22.393C33.3003 17.3967 29.2755 13.372 24.2792 13.372C19.2829 13.372 15.2581 17.3967 15.2581 22.393Z" fill="url(#paint1_linear)"/>
<path d="M39.7231 32.1148L39.7009 32.0915L35.428 27.8185C36.1879 26.1758 36.6882 24.2926 36.6882 22.393C36.6882 15.532 31.1402 9.98403 24.2792 9.98403C17.4182 9.98403 11.8702 15.532 11.8702 22.393C11.8702 29.2541 17.4182 34.802 24.2792 34.802C26.1787 34.802 28.0619 34.3017 29.7047 33.5418L33.9776 37.8148C35.6046 39.4417 38.074 39.4417 39.7009 37.8148L39.7231 37.7914C41.1817 36.1707 41.1817 33.7355 39.7231 32.1148ZM22.6738 18.9837C23.8124 18.7397 24.5376 17.6188 24.2936 16.4802C24.0497 15.3416 22.9288 14.6163 21.7902 14.8603C19.9125 15.2627 18.1483 16.9336 17.188 18.9012C16.1559 21.0159 15.871 23.7963 17.3422 26.6404C17.8772 27.6747 19.1493 28.0795 20.1836 27.5445C21.2179 27.0095 21.6227 25.7373 21.0877 24.703C20.2955 23.1715 20.464 21.8032 20.9777 20.7508C21.2609 20.1705 21.6221 19.7347 21.9561 19.4372C22.3061 19.1254 22.5818 19.0034 22.6738 18.9837ZM24.2792 30.8019C19.621 30.8019 15.8704 27.0512 15.8704 22.393C15.8704 17.7349 19.621 13.9842 24.2792 13.9842C28.9374 13.9842 32.688 17.7349 32.688 22.393C32.688 27.0512 28.9374 30.8019 24.2792 30.8019Z" stroke="#100887" stroke-opacity="0.12" stroke-width="1.22443" stroke-linecap="round" stroke-linejoin="bevel"/>
<path d="M68.3219 10.2456V31.7843H63.0752V18.3149L58.4116 31.7843H53.8707L49.1763 18.2842V31.7843H43.9297V10.2456H50.3422L56.2025 25.2491L61.94 10.2456H68.3219Z" fill="white"/>
<path d="M76.762 14.449C78.0711 14.449 79.1961 14.7456 80.1371 15.3388C81.078 15.932 81.7734 16.7399 82.2234 17.7627V14.6638H87.4394V31.7843H82.2234V28.6854C81.7734 29.7082 81.078 30.5161 80.1371 31.1093C79.1961 31.7025 78.0711 31.9991 76.762 31.9991C75.3507 31.9991 74.0825 31.6514 72.9575 30.9559C71.8529 30.24 70.9734 29.2173 70.3188 27.8877C69.6847 26.5582 69.3677 25.0036 69.3677 23.224C69.3677 21.424 69.6847 19.8695 70.3188 18.5604C70.9734 17.2308 71.8529 16.2183 72.9575 15.5229C74.0825 14.807 75.3507 14.449 76.762 14.449ZM78.4496 19.0513C77.3245 19.0513 76.4143 19.4195 75.7189 20.1558C75.0439 20.8922 74.7064 21.9149 74.7064 23.224C74.7064 24.5331 75.0439 25.5559 75.7189 26.2922C76.4143 27.0286 77.3245 27.3968 78.4496 27.3968C79.5541 27.3968 80.4541 27.0184 81.1496 26.2616C81.8655 25.5047 82.2234 24.4922 82.2234 23.224C82.2234 21.9354 81.8655 20.9229 81.1496 20.1865C80.4541 19.4297 79.5541 19.0513 78.4496 19.0513Z" fill="white"/>
<path d="M99.0597 27.2741V31.7843H96.6972C94.6926 31.7843 93.1278 31.2934 92.0028 30.3116C90.8983 29.3093 90.346 27.6627 90.346 25.3718V19.082H88.0449V14.6638H90.346V10.4603H95.5926V14.6638H99.029V19.082H95.5926V25.4638C95.5926 26.1388 95.7256 26.6093 95.9915 26.8752C96.2779 27.1411 96.7483 27.2741 97.4029 27.2741H99.0597Z" fill="white"/>
<path d="M111.182 14.4797C113.146 14.4797 114.701 15.1342 115.846 16.4433C117.012 17.7524 117.595 19.5524 117.595 21.8434V31.7843H112.348V22.457C112.348 21.3115 112.042 20.4218 111.428 19.7877C110.835 19.1331 110.037 18.8058 109.035 18.8058C107.971 18.8058 107.122 19.1433 106.488 19.8183C105.874 20.4933 105.568 21.4547 105.568 22.7024V31.7843H100.321V9.07965H105.568V17.7933C106.059 16.7706 106.785 15.9626 107.746 15.3695C108.728 14.7763 109.873 14.4797 111.182 14.4797Z" fill="white"/>
<path d="M136.288 16.9784C135.684 15.7083 134.81 14.7298 133.665 14.0427C132.52 13.3348 131.187 12.9809 129.667 12.9809C128.147 12.9809 126.773 13.3348 125.545 14.0427C124.337 14.7298 123.379 15.7292 122.671 17.0409C121.984 18.3317 121.641 19.8308 121.641 21.5381C121.641 23.2454 121.984 24.7445 122.671 26.0354C123.379 27.3262 124.337 28.3256 125.545 29.0335C126.773 29.7206 128.147 30.0641 129.667 30.0641C131.791 30.0641 133.54 29.4291 134.914 28.159C136.288 26.889 137.09 25.1713 137.319 23.006H128.637V20.6949H140.348V22.881C140.182 24.6716 139.619 26.3164 138.662 27.8155C137.704 29.2938 136.444 30.4701 134.883 31.3446C133.321 32.1982 131.583 32.6251 129.667 32.6251C127.648 32.6251 125.805 32.1566 124.139 31.2197C122.474 30.2619 121.152 28.9398 120.173 27.2534C119.215 25.5669 118.736 23.6618 118.736 21.5381C118.736 19.4144 119.215 17.5093 120.173 15.8229C121.152 14.1156 122.474 12.7935 124.139 11.8565C125.805 10.8988 127.648 10.4199 129.667 10.4199C131.978 10.4199 134.019 10.9925 135.788 12.1376C137.579 13.2828 138.88 14.8963 139.692 16.9784H136.288Z" fill="white"/>
<path d="M141.17 23.818C141.17 22.069 141.524 20.5387 142.232 19.227C142.94 17.8945 143.908 16.8639 145.136 16.1352C146.386 15.4064 147.77 15.0421 149.29 15.0421C150.789 15.0421 152.09 15.3648 153.194 16.0102C154.297 16.6557 155.12 17.4677 155.661 18.4463V15.3232H158.534V32.4377H155.661V29.2521C155.099 30.2515 154.256 31.0843 153.132 31.7506C152.028 32.396 150.737 32.7188 149.259 32.7188C147.739 32.7188 146.365 32.344 145.136 31.5944C143.908 30.8449 142.94 29.7935 142.232 28.4401C141.524 27.0868 141.17 25.5461 141.17 23.818ZM155.661 23.8492C155.661 22.5583 155.401 21.434 154.88 20.4763C154.36 19.5185 153.652 18.7898 152.757 18.2901C151.882 17.7696 150.914 17.5093 149.852 17.5093C148.79 17.5093 147.822 17.7592 146.948 18.2589C146.073 18.7586 145.376 19.4873 144.855 20.445C144.335 21.4028 144.075 22.5271 144.075 23.818C144.075 25.1297 144.335 26.2748 144.855 27.2534C145.376 28.2111 146.073 28.9502 146.948 29.4707C147.822 29.9704 148.79 30.2203 149.852 30.2203C150.914 30.2203 151.882 29.9704 152.757 29.4707C153.652 28.9502 154.36 28.2111 154.88 27.2534C155.401 26.2748 155.661 25.1401 155.661 23.8492Z" fill="white"/>
<path d="M164.305 18.4775C164.867 17.4989 165.7 16.6869 166.804 16.0415C167.928 15.3752 169.229 15.0421 170.708 15.0421C172.228 15.0421 173.602 15.4064 174.83 16.1352C176.079 16.8639 177.058 17.8945 177.766 19.227C178.474 20.5387 178.828 22.069 178.828 23.818C178.828 25.5461 178.474 27.0868 177.766 28.4401C177.058 29.7935 176.079 30.8449 174.83 31.5944C173.602 32.344 172.228 32.7188 170.708 32.7188C169.25 32.7188 167.959 32.396 166.835 31.7506C165.732 31.0843 164.888 30.2619 164.305 29.2834V40.5577H161.463V15.3232H164.305V18.4775ZM175.923 23.818C175.923 22.5271 175.663 21.4028 175.142 20.445C174.622 19.4873 173.914 18.7586 173.019 18.2589C172.144 17.7592 171.176 17.5093 170.114 17.5093C169.073 17.5093 168.105 17.7696 167.21 18.2901C166.335 18.7898 165.627 19.5289 165.086 20.5075C164.566 21.4652 164.305 22.5791 164.305 23.8492C164.305 25.1401 164.566 26.2748 165.086 27.2534C165.627 28.2111 166.335 28.9502 167.21 29.4707C168.105 29.9704 169.073 30.2203 170.114 30.2203C171.176 30.2203 172.144 29.9704 173.019 29.4707C173.914 28.9502 174.622 28.2111 175.142 27.2534C175.663 26.2748 175.923 25.1297 175.923 23.818Z" fill="white"/>
<path d="M186.753 32.7188C185.442 32.7188 184.265 32.5001 183.224 32.0629C182.183 31.6049 181.361 30.9802 180.757 30.1891C180.153 29.3771 179.82 28.4505 179.758 27.4095H182.693C182.777 28.2632 183.172 28.9606 183.88 29.502C184.609 30.0433 185.556 30.314 186.722 30.314C187.805 30.314 188.659 30.0745 189.283 29.5957C189.908 29.1168 190.22 28.513 190.22 27.7843C190.22 27.0347 189.887 26.483 189.221 26.129C188.554 25.7543 187.524 25.3899 186.129 25.036C184.859 24.7028 183.818 24.3697 183.006 24.0366C182.215 23.6826 181.528 23.1725 180.945 22.5063C180.382 21.8192 180.101 20.9239 180.101 19.8204C180.101 18.9459 180.362 18.1444 180.882 17.4156C181.403 16.6869 182.142 16.1143 183.099 15.6979C184.057 15.2607 185.15 15.0421 186.379 15.0421C188.273 15.0421 189.804 15.521 190.97 16.4787C192.136 17.4365 192.76 18.7482 192.843 20.4138H190.001C189.939 19.5185 189.575 18.8002 188.908 18.2589C188.263 17.7175 187.389 17.4469 186.285 17.4469C185.265 17.4469 184.453 17.6655 183.849 18.1027C183.245 18.5399 182.943 19.1125 182.943 19.8204C182.943 20.3826 183.12 20.851 183.474 21.2258C183.849 21.5797 184.307 21.8712 184.848 22.1003C185.411 22.3085 186.181 22.5479 187.159 22.8186C188.388 23.1517 189.387 23.4848 190.158 23.818C190.928 24.1303 191.584 24.6091 192.125 25.2546C192.687 25.9 192.979 26.7432 193 27.7843C193 28.7212 192.739 29.5644 192.219 30.314C191.698 31.0635 190.959 31.6569 190.001 32.0941C189.065 32.5105 187.982 32.7188 186.753 32.7188Z" fill="white"/>
</g>
<defs>
<filter id="filter0_d" x="0" y="0" width="201" height="50.5577" filterUnits="userSpaceOnUse" color-interpolation-filters="sRGB">
<feFlood flood-opacity="0" result="BackgroundImageFix"/>
<feColorMatrix in="SourceAlpha" type="matrix" values="0 0 0 0 0 0 0 0 0 0 0 0 0 0 0 0 0 0 127 0"/>
<feOffset dy="2"/>
<feGaussianBlur stdDeviation="4"/>
<feColorMatrix type="matrix" values="0 0 0 0 0 0 0 0 0 0 0 0 0 0 0 0 0 0 0.05 0"/>
<feBlend mode="normal" in2="BackgroundImageFix" result="effect1_dropShadow"/>
<feBlend mode="normal" in="SourceGraphic" in2="effect1_dropShadow" result="shape"/>
</filter>
<linearGradient id="paint0_linear" x1="18.0394" y1="19.4254" x2="18.9857" y2="23.6535" gradientUnits="userSpaceOnUse">
<stop stop-color="white"/>
<stop offset="1" stop-color="white"/>
</linearGradient>
<linearGradient id="paint1_linear" x1="18.0394" y1="19.4254" x2="18.9857" y2="23.6535" gradientUnits="userSpaceOnUse">
<stop stop-color="white"/>
<stop offset="1" stop-color="white"/>
</linearGradient>
</defs>
</svg>
