<svg width="34" height="37" viewBox="0 0 34 37" fill="none" xmlns="http://www.w3.org/2000/svg">
<path d="M30.9519 4.84625L31.5388 6.4967C31.5639 6.56737 31.6137 6.62333 31.6765 6.65167L33.1428 7.31233C33.3499 7.4057 33.3499 7.73575 33.1428 7.82905L31.6765 8.48971C31.6137 8.51798 31.564 8.57402 31.5388 8.64468L30.9519 10.2951C30.869 10.5283 30.5757 10.5283 30.4928 10.2951L29.9058 8.64468C29.8807 8.57402 29.8309 8.51805 29.7681 8.48971L28.3018 7.82905C28.0947 7.73575 28.0947 7.40563 28.3018 7.31233L29.7681 6.65167C29.8309 6.6234 29.8806 6.56737 29.9058 6.4967L30.4928 4.84625C30.5757 4.6131 30.8689 4.6131 30.9519 4.84625Z" fill="white"/>
<path d="M9.01266 0.129727L9.44804 1.35401C9.46667 1.40639 9.50359 1.44795 9.55013 1.46897L10.6379 1.95905C10.7916 2.02831 10.7916 2.27313 10.6379 2.34232L9.55013 2.8324C9.50359 2.85335 9.46667 2.89491 9.44804 2.94736L9.01266 4.17164C8.95114 4.34461 8.73359 4.34461 8.67207 4.17164L8.23669 2.94736C8.21806 2.89498 8.18115 2.85342 8.1346 2.8324L7.04687 2.34232C6.89323 2.27306 6.89323 2.02824 7.04687 1.95905L8.1346 1.46897C8.18115 1.44802 8.21806 1.40646 8.23669 1.35401L8.67207 0.129727C8.73359 -0.0432422 8.95114 -0.0432422 9.01266 0.129727Z" fill="white"/>
<path d="M26.7912 2.68618C26.7912 3.16248 26.4052 3.54857 25.9289 3.54857C25.4526 3.54857 25.0664 3.16241 25.0664 2.68618C25.0664 2.20989 25.4525 1.82373 25.9289 1.82373C26.4052 1.82373 26.7912 2.20982 26.7912 2.68618Z" fill="white"/>
<path d="M3.24902 7.48987C3.24902 8.19341 2.67864 8.76379 1.97509 8.76379C1.27155 8.76379 0.701172 8.19341 0.701172 7.48987C0.701172 6.78632 1.27155 6.21594 1.97509 6.21594C2.67864 6.21601 3.24902 6.78632 3.24902 7.48987Z" fill="white"/>
<path d="M1.63789 21.4355C1.63789 29.5769 8.26102 36.2001 16.4024 36.2001C24.5438 36.2001 31.1669 29.5769 31.167 21.4355C31.167 13.2942 24.5438 6.67097 16.4024 6.67097C8.26102 6.67097 1.63789 13.2942 1.63789 21.4355ZM3.45209 21.4354C3.45209 14.2948 9.2617 8.4851 16.4024 8.4851C23.5431 8.4851 29.3528 14.2948 29.3528 21.4355C29.3528 28.5762 23.5431 34.3859 16.4024 34.3859C9.26177 34.3859 3.45209 28.5761 3.45209 21.4354Z" fill="white" stroke="white" stroke-width="0.4"/>
<path d="M14.0347 17.4681V17.468C14.0347 15.4926 12.4279 13.8858 10.4526 13.8858C8.47714 13.8858 6.87031 15.4926 6.87031 17.468C6.87031 17.969 7.27649 18.3751 7.77738 18.3751C8.27827 18.3751 8.68444 17.969 8.68444 17.468C8.68444 16.4932 9.47774 15.6999 10.4525 15.6999C11.4272 15.6999 12.2205 16.4932 12.2205 17.468C12.2205 17.969 12.6266 18.3751 13.1275 18.3751C13.6284 18.3751 14.0346 17.969 14.0347 17.4681Z" fill="white" stroke="white" stroke-width="0.4"/>
<path d="M25.9371 17.4681V17.468C25.9371 15.4926 24.3303 13.8858 22.3548 13.8858C20.3795 13.8858 18.7727 15.4926 18.7727 17.468C18.7727 17.969 19.1788 18.3751 19.6797 18.3751C20.1806 18.3751 20.5868 17.969 20.5868 17.468C20.5868 16.4932 21.3801 15.6999 22.3548 15.6999C23.3295 15.6999 24.1228 16.4932 24.1228 17.468C24.1228 17.969 24.529 18.3751 25.0299 18.3751C25.5308 18.3751 25.9369 17.969 25.9371 17.4681Z" fill="white" stroke="white" stroke-width="0.4"/>
<path d="M25.8126 20.7908H6.99222C6.49133 20.7908 6.08516 21.1969 6.08516 21.6979C6.08516 27.387 10.7133 32.0152 16.4024 32.0152C22.0916 32.0152 26.7197 27.387 26.7197 21.6979C26.7197 21.197 26.3135 20.7908 25.8126 20.7908ZM11.3 28.4951C12.2593 27.1056 14.206 26.1849 16.4024 26.1849C18.5988 26.1849 20.5455 27.1056 21.5048 28.4951C20.0824 29.5657 18.3155 30.2011 16.4024 30.2011C14.4894 30.2011 12.7224 29.5657 11.3 28.4951ZM24.8574 22.605C24.6695 24.3691 23.9395 25.9737 22.8374 27.2492C21.484 25.4806 19.0496 24.3708 16.4024 24.3708C13.755 24.3708 11.3205 25.4804 9.96714 27.2491C8.86522 25.9735 8.13519 24.369 7.94721 22.605H24.8574Z" fill="white" stroke="white" stroke-width="0.4"/>
</svg>
