<svg width="66" height="66" viewBox="0 0 66 66" fill="none" xmlns="http://www.w3.org/2000/svg">
<g clip-path="url(#clip0)">
<path d="M38.8767 49.2643L36.5166 41.5056L36.9982 41.459C38.0662 41.3567 38.8482 40.4078 38.7459 39.341C38.6423 38.273 37.6934 37.491 36.6266 37.5933L35.3644 37.715L33.2218 30.6709L30.7853 22.6598C30.2208 20.8008 27.5526 20.8383 27.0503 22.7259L22.7431 38.9319L19.258 39.2672C18.1899 39.3708 17.408 40.3198 17.5116 41.3865C17.6087 42.3911 18.4527 43.1433 19.4418 43.1433C19.504 43.1433 19.5674 43.1394 19.6309 43.1343L21.6776 42.9362L19.9908 49.2824C19.715 50.3181 20.3325 51.3823 21.3682 51.658C22.4052 51.9338 23.4694 51.3163 23.7439 50.2806L25.8023 42.5387L32.5732 41.8862L33.2218 44.0185L35.1611 50.3945C35.4721 51.4211 36.5579 51.9989 37.5833 51.6878C38.61 51.3758 39.1887 50.2909 38.8767 49.2643ZM26.8665 38.5345L29.0531 30.311L31.421 38.0956L26.8665 38.5345Z" fill="#FF7C48"/>
<path d="M43.2232 27.3335C44.2957 27.3335 45.1651 26.464 45.1651 25.3916V21.2203L47.3167 21.3449C47.3549 21.3471 47.3928 21.3481 47.4306 21.3481C48.4517 21.3481 49.3078 20.5507 49.3675 19.5183C49.4295 18.4475 48.6117 17.5293 47.541 17.4673L45.165 17.3298V14.94C45.165 13.8675 44.2955 12.998 43.2231 12.998C42.1506 12.998 41.2812 13.8675 41.2812 14.94V17.1051L39.1296 16.9806C38.0592 16.9184 37.1407 17.7364 37.0787 18.807C37.0167 19.8777 37.8345 20.7959 38.9051 20.8579L41.2812 20.9954V25.3916C41.2813 26.464 42.1507 27.3335 43.2232 27.3335Z" fill="#FF415B"/>
<path d="M33.2218 65.996C9.47817 65.6701 0.539718 46.8466 3.26942 30.0755C5.58421 15.8618 15.9528 4.25556 33.2218 0.949103C38.254 -0.0153891 43.8713 -0.275608 50.0454 0.310855C51.1134 0.41313 51.8967 1.36079 51.7957 2.42756C51.6947 3.49562 50.747 4.27757 49.679 4.17789C43.4428 3.58624 37.9769 3.89436 33.2218 4.88734C16.7762 8.31938 8.85571 19.9282 7.1028 30.6995C4.94285 43.9719 10.9703 61.7459 33.2218 62.1225C61.3712 62.6007 65.6859 27.0181 51.3762 11.8071C50.6422 11.0264 50.6784 9.79783 51.4604 9.06249C52.241 8.32714 53.4709 8.36469 54.205 9.14664C70.6211 26.5976 65.1224 66.4589 33.2218 65.996Z" fill="#FF7C48"/>
<path d="M35.1611 50.3944L33.2218 44.0184V30.6709L35.3644 37.7149L36.6266 37.5932C37.6934 37.491 38.6423 38.2729 38.7459 39.341C38.8482 40.4077 38.0662 41.3567 36.9982 41.459L36.5166 41.5056L38.8767 49.2642C39.1887 50.2909 38.61 51.3758 37.5833 51.6878C36.5563 51.9994 35.4717 51.4198 35.1611 50.3944Z" fill="#FF415B"/>
<path d="M33.2218 4.88734V0.949103C38.254 -0.0153891 43.8713 -0.275608 50.0454 0.310855C51.1134 0.41313 51.8967 1.36079 51.7957 2.42756C51.6947 3.49562 50.747 4.27757 49.679 4.17789C43.4428 3.58624 37.9769 3.89436 33.2218 4.88734Z" fill="#FF415B"/>
<path d="M33.2218 65.996V62.1225C61.3712 62.6007 65.6859 27.0181 51.3762 11.8071C50.6422 11.0264 50.6784 9.79784 51.4604 9.06249C52.241 8.32715 53.4709 8.36469 54.205 9.14664C70.6212 26.5976 65.1224 66.459 33.2218 65.996Z" fill="#FF415B"/>
</g>
<defs>
<clipPath id="clip0">
<rect width="66" height="66" fill="white"/>
</clipPath>
</defs>
</svg>
