<svg width="50" height="58" viewBox="0 0 50 58" fill="none" xmlns="http://www.w3.org/2000/svg">
<path fill-rule="evenodd" clip-rule="evenodd" d="M29.9233 0.488828C29.0219 0.386214 28.3797 0.408059 28.036 0.552835C27.7493 0.673613 27.0122 0.771758 26.3978 0.771145C20.965 0.764897 15.505 3.01497 11.0839 7.0819C-2.05797 19.1704 -2.87132 41.6918 9.439 52.6278C13.7091 56.4212 19.485 58.2656 25.1819 57.655C35 56.6026 43.6868 48.8304 47.5057 37.6817C48.3504 35.2159 49.2978 30.2109 49.3619 27.8771C49.5659 20.4517 47.7543 14.2055 43.8555 8.89094C40.4081 4.1919 35.277 1.09746 29.9233 0.488828ZM33.1323 4.95801C41.248 8.28246 46.0098 17.6559 45.2063 28.7249C45.0167 31.3374 43.7118 36.5244 42.6786 38.7729C39.1515 46.4486 32.9912 51.9563 26.2903 53.4245C23.4207 54.0533 22.1894 54.0357 19.0738 53.3213C16.6618 52.7682 16.2622 52.632 15.0255 51.9416C12.219 50.3745 9.89784 48.1077 8.10885 45.1867C2.91344 36.7038 3.33262 24.518 9.14435 15.082C13.0635 8.71909 19.1002 4.36641 25.3054 3.42985L26.7405 3.21317L29.4532 3.88767C30.9453 4.25871 32.6008 4.7403 33.1323 4.95801ZM26.5504 13.8765C25.0492 13.9065 23.6975 14.3783 21.7682 15.5455C19.6205 16.845 18.1224 18.0961 17.1703 19.3855C16.5575 20.2156 16.4477 20.4993 16.033 22.3243C15.4439 24.9173 15.5282 25.8226 16.4955 27.295C17.2632 28.4637 17.9746 28.8914 18.9025 28.7425C19.9761 28.5703 20.2723 27.7634 19.6097 26.8161C18.899 25.7996 18.8533 25.4209 19.2372 23.7255C19.7374 21.5171 20.3526 20.7756 23.191 18.9591C24.9646 17.824 25.9579 17.471 27.0908 17.5733C27.8354 17.6404 27.9187 17.6901 28.2805 18.2841C28.9192 19.3322 28.9712 21.0163 28.4389 23.4196C28.0645 25.1107 27.8859 25.6134 27.3495 26.4869C26.5378 27.8083 24.8976 29.8026 23.5002 31.1669C22.9051 31.7479 21.8076 32.8263 21.0612 33.5633C20.3147 34.3004 18.9707 35.5913 18.0746 36.4322C16.6504 37.7683 16.4404 38.0335 16.4076 38.5378C16.3229 39.8395 17.6909 40.7318 18.9064 40.1681C20.5997 39.3828 23.5128 38.275 26.2729 37.3667C31.2954 35.7141 33.6797 34.7338 34.7136 33.8964C35.438 33.3096 35.3047 33.0117 34.3848 33.1619C34.0213 33.2214 32.8773 33.313 31.8426 33.3653C30.8082 33.4178 29.3241 33.5729 28.5449 33.7102C27.7657 33.8474 26.7322 34.0307 26.2484 34.1174C25.7643 34.2041 25.4129 34.2288 25.4675 34.1723C25.5219 34.1157 25.9855 33.6492 26.4976 33.1355C29.7258 29.8971 31.377 27.2091 32.0872 24.0361C32.9871 20.0158 32.2528 16.4774 30.1935 14.9099C29.4496 14.3438 27.7199 13.853 26.5504 13.8765Z" fill="#323232"/>
</svg>
