<svg width="48" height="58" viewBox="0 0 48 58" fill="none" xmlns="http://www.w3.org/2000/svg">
<path fill-rule="evenodd" clip-rule="evenodd" d="M21.8653 0.225355C19.1638 0.749875 16.7569 1.51336 14.9408 2.42193C7.10782 6.34093 1.49612 15.1247 0.247067 25.4217C-0.70734 33.2888 1.12948 41.3418 5.30469 47.5947C6.63036 49.5803 9.12607 52.2188 11.0846 53.7053C11.888 54.3152 13.4687 55.2702 14.5974 55.8277C20.6106 58.7984 26.9484 58.721 33.0451 55.6027C40.525 51.7769 45.9767 43.6494 47.6062 33.8942C47.9881 31.6083 48.1215 27.0182 47.8755 24.6344C47.4624 20.6309 46.3633 16.8166 44.5959 13.2525C41.1927 6.38907 35.1611 1.48201 28.5774 0.220216C27.0337 -0.075619 23.4018 -0.0728784 21.8653 0.225355ZM27.6796 3.64005C31.5159 4.64507 34.081 6.18402 36.946 9.19976C40.1938 12.6184 42.4068 17.0542 43.5353 22.4071C43.9432 24.3415 43.9897 24.9297 43.9967 28.2413C44.0056 32.3859 43.7968 33.9582 42.7971 37.2725C40.6138 44.5108 36.298 49.9268 30.5413 52.6527C27.8776 53.9142 26.5301 54.1956 23.2334 54.1792C20.6869 54.1667 20.2653 54.1206 18.9108 53.7076C10.482 51.1372 4.52984 42.6855 3.56124 31.9114C2.73748 22.7485 6.33039 12.9779 12.452 7.73429C15.2935 5.30012 18.6512 3.54669 21.0957 3.22019C22.8936 2.98003 25.8891 3.17103 27.6796 3.64005ZM27.1462 8.62796C26.5479 8.95377 25.8302 10.5797 24.2355 15.2225C23.4109 17.6236 22.0252 20.4934 20.803 22.3314C18.054 26.4652 15.5076 29.9839 14.6401 30.8473C13.7632 31.72 13.6568 31.9014 13.6568 32.5251C13.6568 33.4937 14.2331 34.0655 15.2092 34.0655C15.7512 34.0655 16.1578 33.908 16.9027 33.4096C17.5806 32.9561 18.4846 32.583 19.8316 32.2009C20.903 31.8966 23.1448 31.2145 24.8132 30.6849C26.4815 30.1552 27.8867 29.7621 27.936 29.8112C28.1136 29.9892 28.6903 35.7887 28.955 40.061C29.104 42.4634 29.3088 44.9687 29.4104 45.6282C29.6517 47.1937 30.1372 48.3293 30.5327 48.2529C30.9208 48.178 31.8769 45.8151 32.1144 44.3435C32.4181 42.4628 32.3337 35.404 31.9646 31.8386C31.7842 30.0956 31.689 28.6245 31.7529 28.5695C31.817 28.5145 32.6004 28.26 33.494 28.0039C37.3417 26.901 39.4861 25.9642 39.0843 25.5616C39.0249 25.5022 37.9161 25.6269 36.62 25.839C35.3239 26.0509 33.6479 26.3246 32.8954 26.4473C32.143 26.5699 31.4798 26.6191 31.4216 26.5564C31.2852 26.4094 30.2993 20.092 30.0751 17.9271C29.9802 17.0124 29.8993 15.278 29.8952 14.0729C29.8911 12.868 29.8212 11.3061 29.7398 10.6018C29.61 9.47778 29.527 9.26348 29.0605 8.84602C28.4714 8.31876 27.8455 8.24733 27.1462 8.62796ZM27.1728 24.2157C27.4417 25.9116 27.6081 27.3476 27.5425 27.4067C27.4496 27.4905 21.9387 28.865 20.4543 29.1747C20.0952 29.2495 20.0247 29.3725 21.776 26.8709C23.8073 23.9692 24.8833 22.2328 25.6836 20.5645L26.397 19.0767L26.5404 20.1045C26.6194 20.6698 26.9039 22.5199 27.1728 24.2157Z" fill="black"/>
</svg>
