<svg width="57" height="59" viewBox="0 0 57 59" fill="none" xmlns="http://www.w3.org/2000/svg">
<path fill-rule="evenodd" clip-rule="evenodd" d="M32.6759 0.234453C32.514 0.263919 31.8813 0.309984 31.27 0.336711C30.6028 0.366151 29.8893 0.536761 29.4848 0.763892C29.1142 0.971896 28.4211 1.17724 27.9445 1.21981C25.207 1.46524 20.3098 3.20627 17.1827 5.04553C14.9846 6.33834 10.7381 9.93021 9.09582 11.8857C5.3409 16.3564 2.76961 21.45 1.42826 27.0748C0.787072 29.7634 0.547344 34.4924 0.908361 37.3341C1.93661 45.4308 6.25443 52.1823 12.7287 55.8172C15.9449 57.6228 18.8666 58.459 22.8465 58.7129C27.284 58.9959 30.2228 58.5148 34.6124 56.7867C39.5365 54.8479 43.7811 51.8301 47.3741 47.7132C56.8964 36.8024 59.0048 21.9314 52.5455 11.2369C49.4245 6.06948 44.411 2.38135 38.5716 0.95706C37.2042 0.623483 33.2218 0.135493 32.6759 0.234453ZM32.4701 3.65802C37.9094 3.85279 42.0251 5.41066 45.709 8.66991C49.5939 12.1066 51.9731 17.0423 52.602 22.9699C52.874 25.5347 52.3905 30.8694 51.6576 33.387C48.2481 45.0996 38.5643 53.8928 27.2778 55.525C25.1016 55.8397 20.9979 55.5939 18.9907 55.0285C15.5268 54.0529 12.8596 52.4793 10.3566 49.9341C6.8574 46.3764 4.9141 42.086 4.33661 36.6433C4.06983 34.1296 4.55046 28.782 5.27484 26.2017C7.95361 16.66 15.139 8.50578 24.0889 4.85103C26.2079 3.98572 29.0223 3.23497 29.475 3.41427C29.6836 3.49678 31.0313 3.60642 32.4701 3.65802ZM28.5086 10.5868C25.9448 10.9999 23.3666 13.0269 21.7215 15.9231C20.8802 17.4041 20.9542 19.0518 21.9178 20.2888C22.2765 20.749 22.5319 20.9165 22.7683 20.8464C23.0779 20.7542 23.084 20.6991 22.8418 20.1836C22.164 18.741 22.8189 17.3376 25.0348 15.4837C26.4532 14.2973 27.57 13.84 29.2892 13.7421C31.0747 13.6402 31.5948 13.7969 31.8062 14.4998C32.052 15.3168 31.8999 17.1475 31.4826 18.3973C30.6825 20.7921 27.7354 25.1208 25.5347 27.1331C24.538 28.0444 24.387 28.2728 24.3476 28.9267C24.3125 29.5106 24.4204 29.8023 24.8358 30.2464C25.5912 31.0542 26.3376 31.0498 28.0587 30.227C31.0849 28.7802 33.5578 28.2302 36.9379 28.2517L38.9044 28.2644L39.2343 28.8097C39.4835 29.2218 39.5434 29.6974 39.4797 30.7554C39.401 32.0644 39.326 32.2712 38.3351 33.9152C35.9682 37.8413 31.3289 40.4822 25.7762 41.0643C23.7477 41.2769 22.0626 41.1822 20.8186 40.7853C19.2652 40.29 17.6156 39.2719 16.9876 38.4211C16.083 37.1953 15.8266 37.329 15.8063 39.0369C15.7912 40.3118 15.8532 40.5613 16.3753 41.3263C17.1051 42.3958 18.6983 43.5703 20.1069 44.0774C20.9228 44.3711 21.8519 44.5033 23.9852 44.6289C26.4399 44.7733 27.0364 44.7455 28.7557 44.4062C30.9904 43.965 34.2559 42.7327 35.9618 41.6868C39.6954 39.3975 42.7073 35.5515 43.4445 32.1319C44.109 29.0494 43.0134 26.1149 40.7462 24.9045C39.9733 24.4918 39.5915 24.4197 37.7309 24.3341C36.559 24.2803 34.9023 24.321 34.0493 24.4247C33.1961 24.5284 32.4631 24.5758 32.4203 24.5301C32.3776 24.4845 32.8413 23.5676 33.4508 22.4927C34.0603 21.418 34.7276 19.9933 34.9337 19.3268C35.3235 18.0669 35.5593 15.5616 35.4021 14.3502C35.2157 12.9142 34.1183 11.3493 32.9468 10.8493C32.3176 10.5808 29.559 10.4175 28.5086 10.5868Z" fill="#323232"/>
</svg>
