<svg width="120" height="86" viewBox="0 0 120 86" fill="none" xmlns="http://www.w3.org/2000/svg">
<path d="M53.3688 44.1803C53.3122 44.1385 53.2235 44.2303 53.1718 44.3794C53.1202 44.5285 53.1316 44.6863 53.1893 44.7262C53.2469 44.7662 53.3386 44.6793 53.3862 44.5272C53.4338 44.3751 53.4264 44.2203 53.3688 44.1803Z" fill="#263238"/>
<path d="M54.3276 42.1285C54.1369 42.2109 54.0108 42.3531 53.957 42.5464C53.8365 42.6897 53.7837 42.8849 53.8016 43.121C53.9893 43.037 54.1136 42.8945 54.1672 42.702C54.289 42.559 54.3435 42.3642 54.3276 42.1285Z" fill="#263238"/>
<path d="M55.6601 40.3675C55.2891 40.5384 55.0449 40.8258 54.9422 41.2125C55.1609 41.1591 55.3174 41.0428 55.4016 40.8711C55.5545 40.7545 55.6424 40.5834 55.6601 40.3675Z" fill="#263238"/>
<path d="M57.3909 38.9173C57.1476 38.9434 56.9592 39.03 56.8367 39.1722C56.651 39.259 56.529 39.4041 56.4781 39.5991C56.7208 39.5722 56.9091 39.4856 57.0324 39.3442C57.2204 39.2594 57.3425 39.114 57.3909 38.9173Z" fill="#263238"/>
<path d="M59.5303 37.8428C59.0335 37.8804 58.6482 38.0435 58.3987 38.3219C58.6694 38.33 58.8901 38.2764 59.0476 38.1642C59.2715 38.1162 59.4358 38.0069 59.5303 37.8428Z" fill="#263238"/>
<path d="M62.0811 37.1815C61.7828 37.135 61.5284 37.1509 61.3335 37.2282C61.0828 37.2458 60.8855 37.324 60.7531 37.4583C61.0496 37.5024 61.3035 37.4865 61.5006 37.4116C61.7523 37.395 61.9497 37.3168 62.0811 37.1815Z" fill="#263238"/>
<path d="M65.0405 36.9756C65.0003 36.9241 64.6156 36.8837 64.1855 36.8857C63.9074 36.8696 63.6767 36.9137 63.5063 37.0155C63.5516 37.068 63.9222 37.0926 64.3393 37.0728C64.6237 37.1007 64.8621 37.0676 65.0405 36.9756Z" fill="#263238"/>
<path d="M68.3956 37.2784C68.3616 37.226 67.9468 37.1362 67.4706 37.0769C67.1598 37.0123 66.888 37.0076 66.6707 37.0631C66.7109 37.1146 67.1216 37.2014 67.5968 37.2627C67.9074 37.3284 68.1789 37.3337 68.3956 37.2784Z" fill="#263238"/>
<path d="M72.0749 38.0802C72.0499 38.0319 71.6113 37.8919 71.085 37.7575C70.5586 37.6231 70.1659 37.5658 70.1959 37.6152C70.5488 37.778 70.8852 37.8877 71.1858 37.938C71.7122 38.0724 72.1119 38.1375 72.0749 38.0802Z" fill="#263238"/>
<path d="M76.0361 39.3996C75.6772 39.1989 75.3242 39.0476 74.9987 38.9548C74.4445 38.7564 74.0088 38.632 74.0205 38.6733C74.3796 38.8714 74.7324 39.0219 75.059 39.1162C75.6201 39.3225 76.0559 39.4469 76.0361 39.3996Z" fill="#263238"/>
<path d="M80.1797 41.2125C79.8228 40.9781 79.4606 40.7867 79.1151 40.6498C78.7572 40.4614 78.4088 40.3235 78.0905 40.2443C78.4474 40.4787 78.8096 40.6702 79.1551 40.807C79.5127 40.9944 79.8609 41.1322 80.1797 41.2125Z" fill="#263238"/>
<path d="M84.4078 43.509C84.0625 43.2452 83.7006 43.0151 83.3425 42.8317C82.9839 42.6049 82.6227 42.4225 82.2807 42.2955C82.6262 42.5584 82.9879 42.7883 83.346 42.9727C83.7045 43.1981 84.0653 43.3802 84.4078 43.509Z" fill="#263238"/>
<path d="M88.6286 46.2827C87.972 45.7192 87.2532 45.2254 86.5366 44.8455C87.2099 45.3812 87.9163 45.8665 88.6286 46.2827Z" fill="#263238"/>
<path d="M92.6543 49.4531C92.0531 48.8602 91.3782 48.3052 90.6716 47.8225C90.9525 48.1268 91.2765 48.4184 91.6237 48.6794C91.9457 48.9662 92.2957 49.229 92.6543 49.4531Z" fill="#263238"/>
<path d="M96.3505 52.9005C96.1157 52.5937 95.8279 52.2883 95.5048 52.003C95.2218 51.7002 94.8962 51.4111 94.5485 51.1539C94.7849 51.4605 95.0723 51.7655 95.3942 52.0514C95.6795 52.3531 96.0043 52.6415 96.3505 52.9005Z" fill="#263238"/>
<path d="M99.594 56.4984C99.6358 56.4941 99.3226 56.0884 98.8871 55.5842C98.6512 55.2762 98.362 54.9698 98.0374 54.6836C98.4547 55.2915 98.9844 55.9078 99.5951 56.4965L99.594 56.4984Z" fill="#263238"/>
<path d="M102.24 60.1135C102.291 60.124 102.053 59.7253 101.711 59.2252C101.529 58.924 101.287 58.613 100.999 58.3099C100.954 58.3093 101.192 58.7081 101.532 59.2012C101.711 59.501 101.952 59.8116 102.24 60.1135Z" fill="#263238"/>
<path d="M104.128 63.5964C104.111 63.3586 104.012 63.0791 103.838 62.7788C103.603 62.3008 103.341 61.8948 103.291 61.8824C103.241 61.87 103.409 62.2414 103.639 62.7183C103.869 63.1953 104.072 63.576 104.128 63.5964Z" fill="#263238"/>
<path d="M104.942 65.9876C105.001 66.0148 105.005 65.869 104.946 65.6538C104.886 65.4385 104.795 65.2493 104.735 65.226C104.674 65.2026 104.67 65.3465 104.731 65.5598C104.791 65.7731 104.882 65.9623 104.942 65.9876Z" fill="#263238"/>
<path d="M67.3903 56.4432C67.3546 56.3744 67.5691 56.1508 67.8803 55.9331C68.1914 55.7154 68.4945 55.6143 68.5323 55.6632C68.5702 55.7122 68.3659 55.9554 68.0424 56.1733C67.7189 56.3911 67.4386 56.5241 67.3903 56.4432Z" fill="#263238"/>
<path d="M62.2452 58.4275C62.6561 58.2084 63.0993 58.0562 63.5582 57.9767C63.9917 57.8058 64.4502 57.7069 64.9156 57.6838C64.1231 58.1957 63.1961 58.4598 62.2529 58.4422L62.2452 58.4275Z" fill="#263238"/>
<path d="M56.7125 58.5363C57.1724 58.4547 57.6427 58.4509 58.1039 58.5251C58.8622 58.5681 59.4795 58.6157 59.4857 58.6998C59.0331 58.841 58.5541 58.8763 58.0858 58.8027C57.3176 58.7648 56.7038 58.6156 56.7125 58.5363Z" fill="#263238"/>
<path d="M51.3536 57.1517C51.3847 57.0794 51.9814 57.2437 52.708 57.4778C53.4345 57.7119 54.0148 57.9284 53.9986 58.0054C53.9824 58.0824 53.3644 57.9853 52.6206 57.754C51.8767 57.5226 51.325 57.2289 51.3536 57.1517Z" fill="#263238"/>
<path d="M46.3985 54.6717C46.4445 54.6042 47.0152 54.8506 47.6898 55.2489C48.1184 55.4379 48.5054 55.7097 48.8286 56.0487C48.7926 56.1236 48.2192 55.8723 47.55 55.4961C47.1128 55.3047 46.7206 55.0238 46.3985 54.6717Z" fill="#263238"/>
<path d="M41.9727 51.3365C42.4075 51.5122 42.8022 51.7741 43.1332 52.1063C43.5213 52.3715 43.8551 52.7085 44.1164 53.0992C43.6796 52.9258 43.2829 52.6647 42.9509 52.332C42.562 52.0684 42.2294 51.73 41.9727 51.3365Z" fill="#263238"/>
<path d="M38.5159 47.4738C38.9211 47.7121 39.2745 48.0292 39.5552 48.4064C39.9033 48.7217 40.183 49.1051 40.377 49.5329C39.9692 49.2981 39.6151 48.9804 39.3377 48.6003C38.9898 48.2848 38.7102 47.9014 38.5159 47.4738Z" fill="#263238"/>
<path d="M34.741 42.9457C35.116 43.228 35.4325 43.5807 35.6729 43.9839C35.9859 44.3349 36.2246 44.7457 36.3746 45.1915C35.996 44.9129 35.6788 44.5596 35.4427 44.1533C35.1269 43.8042 34.8879 43.3928 34.741 42.9457Z" fill="#263238"/>
<path d="M31.7272 38.2921C32.3767 38.9658 32.878 39.7678 33.1991 40.6468C32.8419 40.3436 32.5506 39.9705 32.3431 39.5505C32.0521 39.1787 31.8423 38.75 31.7272 38.2921Z" fill="#263238"/>
<path d="M29.605 34.709C29.6787 34.6707 29.8878 34.9053 30.0785 35.2366C30.2692 35.568 30.3679 35.8661 30.3016 35.9068C30.2354 35.9474 30.0188 35.7105 29.8281 35.3791C29.6374 35.0477 29.5388 34.7496 29.605 34.709Z" fill="#263238"/>
<path d="M45.1949 0.308161L0.432617 11.2573L7.81317 41.4305L52.5755 30.4813L45.1949 0.308161Z" fill="#30C18B"/>
<path d="M7.79697 41.4465L0.415754 11.2609L45.1958 0.308929L52.577 30.4945L7.79697 41.4465ZM0.442923 11.2556L7.81671 41.4032L52.5533 30.4597L45.1795 0.312111L0.442923 11.2556Z" fill="#263238"/>
<path d="M45.4236 0.637062C45.3339 0.814557 45.2269 0.982799 45.1043 1.13936L44.125 2.53758L40.4665 7.6344L28.204 24.3944L28.1013 24.5329L27.9463 24.4616L27.5737 24.2862L8.50293 15.3852C6.10227 14.2406 4.14903 13.3077 2.745 12.6454L1.19055 11.8771C1.0044 11.798 0.826628 11.7004 0.659896 11.5859C0.854311 11.6428 1.04386 11.7152 1.22672 11.8024L2.81523 12.485L8.62907 15.1068L27.7459 23.8972L28.124 24.0716L27.8632 24.1225L40.2198 7.44L43.9898 2.42296L45.0383 1.0902C45.1505 0.926107 45.2797 0.774229 45.4236 0.637062Z" fill="#263238"/>
<path d="M8.03872 41.7608C7.938 41.7072 10.292 36.7465 13.2992 30.6826C16.3065 24.6186 18.8294 19.7435 18.9291 19.7917C19.0287 19.84 16.6813 24.805 13.674 30.8689C10.6668 36.9328 8.14382 41.808 8.03872 41.7608Z" fill="#263238"/>
<path d="M33.7186 15.7764C33.7907 15.6833 38.1227 18.9779 43.3888 23.128C48.6549 27.278 52.8744 30.7186 52.786 30.8149C52.6976 30.9111 48.3873 27.6123 43.1148 23.4578C37.8422 19.3034 33.6466 15.8694 33.7186 15.7764Z" fill="#263238"/>
<path d="M118.223 61.2795L85.3984 56.0126L81.8481 78.1391L114.673 83.406L118.223 61.2795Z" fill="#30C18B"/>
<path d="M81.9981 78.0358L85.5515 55.9008L118.389 61.1709L114.836 83.3059L81.9981 78.0358ZM85.571 55.9049L82.0234 78.0125L114.83 83.276L118.377 61.1684L85.571 55.9049Z" fill="#263238"/>
<path d="M118.449 61.452C118.339 61.5448 118.221 61.6267 118.096 61.6964L117.053 62.3514L113.192 64.7142L100.343 72.4188L100.236 72.4821L100.153 72.3913L99.9545 72.1702L89.7717 60.9082C88.4966 59.4745 87.4597 58.3069 86.7119 57.4731L85.8939 56.5267C85.7923 56.422 85.7015 56.3073 85.6228 56.1844C85.7361 56.2767 85.8418 56.378 85.9389 56.4872L86.8036 57.3862L89.9336 60.7585L100.178 71.9599L100.381 72.1818L100.193 72.1426L113.083 64.5159L116.995 62.2373L118.065 61.6452C118.186 61.5676 118.315 61.5028 118.449 61.452Z" fill="#263238"/>
<path d="M81.964 78.1844C81.912 78.1205 84.8672 75.4826 88.5658 72.2944C92.2645 69.1061 95.308 66.5724 95.3607 66.6324C95.4135 66.6924 92.4614 69.335 88.7628 72.5233C85.0641 75.7115 82.0206 78.2452 81.964 78.1844Z" fill="#263238"/>
<path d="M106.425 68.2358C106.499 68.1941 108.455 71.5983 110.793 75.8331C113.13 80.0678 114.971 83.5376 114.885 83.5768C114.8 83.616 112.859 80.215 110.518 75.9756C108.177 71.7361 106.351 68.2774 106.425 68.2358Z" fill="#263238"/>
</svg>
