<svg width="59" height="59" viewBox="0 0 59 59" fill="none" xmlns="http://www.w3.org/2000/svg">
<path d="M42.6115 36.0555V29.5H50.8059V36.0555H54.0837V45.8889H39.3337V36.0555H42.6115Z" fill="#FFDC5D"/>
<path d="M50.8056 36.0552L46.6624 42.2469L42.6111 36.0552H34.4167C31.1389 36.0552 29.5 37.6941 29.5 40.9276V58.9996H59V36.0552H50.8056Z" fill="#3B93D9"/>
<path d="M34.3945 42.6108H36.0793V58.9997H34.3945V42.6108Z" fill="#1B6399"/>
<path d="M34.4163 6.55566L34.4557 22.9445C34.4737 23.2313 34.5147 23.5132 34.5523 23.7935C35.362 29.759 40.4818 34.3643 46.708 34.3643C53.2275 34.3643 58.5457 29.3182 58.9603 22.9429H58.9996V6.55566H34.4163Z" fill="#FFDC5D"/>
<path d="M31.2076 14.5222C31.2076 18.0474 32.4647 21.2793 34.5543 23.795C34.5166 23.5131 34.4756 23.2329 34.4576 22.9461L34.4412 16.3364C43.2289 15.8415 48.393 11.9524 51.1611 8.84671C52.0871 11.7508 54.2701 16.3889 58.7721 16.3889H58.9999V3.09258C57.207 1.9765 55.0977 1.32094 52.8311 1.32094C52.5017 1.32094 52.1789 1.34389 51.856 1.37011C49.9926 0.49986 47.921 0 45.7282 0C37.7075 0 31.2076 6.50146 31.2076 14.5222Z" fill="#FFAC33"/>
<path d="M41.4287 29.0458H51.9897C51.9897 29.0458 50.6704 31.6844 46.7092 31.6844C42.748 31.6844 41.4287 29.0458 41.4287 29.0458ZM45.8898 25.4026H47.5287C47.981 25.4026 48.3481 25.0354 48.3481 24.5831C48.3481 24.1308 47.981 23.7637 47.5287 23.7637H45.8898C45.4375 23.7637 45.0704 24.1308 45.0704 24.5831C45.0704 25.0354 45.4375 25.4026 45.8898 25.4026Z" fill="#BF6952"/>
<path d="M52.4448 21.3053C53.3495 21.3053 54.0837 20.5711 54.0837 19.6664V18.0276C54.0837 17.1229 53.3495 16.3887 52.4448 16.3887C51.5401 16.3887 50.8059 17.1229 50.8059 18.0276V19.6664C50.8059 20.5711 51.5401 21.3053 52.4448 21.3053ZM40.9726 21.3053C41.8772 21.3053 42.6115 20.5711 42.6115 19.6664V18.0276C42.6115 17.1229 41.8772 16.3887 40.9726 16.3887C40.0679 16.3887 39.3337 17.1229 39.3337 18.0276V19.6664C39.3337 20.5711 40.0679 21.3053 40.9726 21.3053Z" fill="#662113"/>
<path d="M8.1941 36.0555V29.5H16.3885V36.0555H19.6663V45.8889H4.91632V36.0555H8.1941Z" fill="#FFDC5D"/>
<path d="M24.5833 36.0552H16.3889L12.3376 42.2469L8.19444 36.0552H0V58.9996H29.5V40.9276C29.5 37.6941 27.8611 36.0552 24.5833 36.0552Z" fill="#3B94D9"/>
<path d="M22.9217 42.6108H24.6065V58.9997H22.9217V42.6108Z" fill="#1B6399"/>
<path d="M24.5833 22.9445V8.19455L0 6.55566V22.9445H0.0393333C0.452333 29.3198 5.77217 34.3659 12.2917 34.3659C18.5047 34.3659 23.6524 29.7787 24.4817 23.8312C24.5227 23.5362 24.5637 23.2444 24.5833 22.9445Z" fill="#FFDC5D"/>
<path d="M6.23761 1.32094C3.94153 1.32094 1.80606 1.99125 0 3.13355V16.3807C9.74647 16.2905 15.3646 12.131 18.2933 8.84507C19.1226 11.4493 20.9696 15.435 24.5833 16.2365V22.9444C24.5637 23.2443 24.5227 23.5361 24.4817 23.8294C26.5893 21.3088 27.8611 18.0654 27.8611 14.5222C27.8611 6.50146 21.3596 0 13.3389 0C11.1461 0 9.07617 0.49986 7.21111 1.37011C6.88989 1.34225 6.56539 1.32094 6.23761 1.32094ZM24.5833 8.19443V8.46649L24.5374 8.19279L24.5833 8.19443Z" fill="#FFAC33"/>
<path d="M17.5724 29.0458H7.01141C7.01141 29.0458 8.33072 31.6844 12.2919 31.6844C16.2531 31.6844 17.5724 29.0458 17.5724 29.0458ZM13.1114 25.4026H11.4725C11.0201 25.4026 10.653 25.0354 10.653 24.5831C10.653 24.1308 11.0201 23.7637 11.4725 23.7637H13.1114C13.5637 23.7637 13.9308 24.1308 13.9308 24.5831C13.9308 25.0354 13.5637 25.4026 13.1114 25.4026Z" fill="#BF6952"/>
<path d="M6.55521 21.3053C5.65054 21.3053 4.91632 20.5711 4.91632 19.6664V18.0276C4.91632 17.1229 5.65054 16.3887 6.55521 16.3887C7.45988 16.3887 8.1941 17.1229 8.1941 18.0276V19.6664C8.1941 20.5711 7.45988 21.3053 6.55521 21.3053ZM18.0274 21.3053C17.1228 21.3053 16.3885 20.5711 16.3885 19.6664V18.0276C16.3885 17.1229 17.1228 16.3887 18.0274 16.3887C18.9321 16.3887 19.6663 17.1229 19.6663 18.0276V19.6664C19.6663 20.5711 18.9321 21.3053 18.0274 21.3053Z" fill="#662113"/>
<path d="M47.5241 55.7218V50.8052H40.9686V55.7218H39.3297V58.9996H49.163V55.7218H47.5241Z" fill="#FFDC5D"/>
<path d="M40.9684 54.0835H37.6906C33.6049 54.0835 30.6827 56.3534 29.801 59.0002H58.6979C57.8506 56.3747 55.1595 54.0835 52.4406 54.0835H47.5239L46.7602 54.8472L44.2462 57.3613L40.9684 54.0835Z" fill="#88C9F9"/>
<path d="M54.0718 44.3152L54.0686 44.2496H54.08V37.2253L47.0557 35.8208L34.4134 37.2253V44.2496H34.4166L34.4134 44.3152C34.4134 45.3706 34.5871 46.3851 34.8985 47.3373C36.1801 51.2509 39.8774 54.0829 44.2434 54.0829C48.6012 54.0829 52.292 51.2608 53.5802 47.3586C53.8948 46.3998 54.0718 45.3788 54.0718 44.3152Z" fill="#FFDC5D"/>
<path d="M55.7187 41.1769C55.7187 35.6325 51.2248 31.1387 45.6805 31.1387C45.1921 31.1387 44.7168 31.1862 44.2465 31.2534C43.7777 31.1862 43.3008 31.1387 42.8124 31.1387C37.2681 31.1387 32.7742 35.6325 32.7742 41.1769C32.7742 43.5008 33.5724 45.6363 34.8982 47.3374C34.5868 46.3852 34.4131 45.3708 34.4131 44.3153L34.4164 44.2498H34.4131V41.1179C41.2506 40.8212 45.2101 38.5087 47.4079 36.3487C48.8993 38.1089 51.2609 40.305 54.0798 40.9638V44.2498H54.0683L54.0716 44.3153C54.0716 45.379 53.8946 46.4 53.5783 47.3587C54.9156 45.6543 55.7187 43.5106 55.7187 41.1769Z" fill="#F4900C"/>
<path d="M47.5244 49.1666H40.9688C40.9688 49.1666 41.6063 51.3512 44.2466 51.3512C46.8868 51.3512 47.5244 49.1666 47.5244 49.1666ZM44.2466 48.3471C44.0335 48.3471 43.8205 48.2652 43.673 48.1013C43.5091 47.9538 43.4271 47.7407 43.4271 47.5277C43.4271 47.3146 43.5091 47.1016 43.673 46.9377C43.9516 46.6591 44.5252 46.6427 44.8366 46.9541C44.9841 47.1032 45.066 47.3162 45.066 47.5293C45.066 47.7424 44.9841 47.9554 44.8202 48.1029C44.6727 48.2652 44.4596 48.3471 44.2466 48.3471Z" fill="#BF6952"/>
<path d="M47.5246 45.889C46.7691 45.889 46.1594 45.2777 46.1594 44.5238V43.1586C46.1594 42.4031 46.7707 41.7935 47.5246 41.7935C48.2802 41.7935 48.8898 42.4048 48.8898 43.1586V44.5238C48.8915 45.2777 48.2802 45.889 47.5246 45.889ZM40.9691 45.889C40.2135 45.889 39.6039 45.2777 39.6039 44.5238V43.1586C39.6039 42.4031 40.2152 41.7935 40.9691 41.7935C41.7246 41.7935 42.3343 42.4048 42.3343 43.1586V44.5238C42.3359 45.2777 41.7246 45.889 40.9691 45.889Z" fill="#662113"/>
<path d="M4.91336 37.2253V44.2496H4.91664L4.91336 44.3152C4.91336 49.7087 9.31378 54.0829 14.7418 54.0829C20.1698 54.0829 24.5702 49.7087 24.5702 44.3152L24.5669 44.2496H24.5784V37.2253L17.5541 35.8208L4.91336 37.2253Z" fill="#FFDC5D"/>
<path d="M26.2146 41.2867C26.2146 41.249 26.2195 41.2145 26.2195 41.1769L26.2162 41.1129L26.2195 40.972L26.2096 40.9818C26.1047 35.5293 21.6601 31.1387 16.1813 31.1387C15.6929 31.1387 15.2176 31.1862 14.7472 31.2534C14.2785 31.1862 13.8016 31.1387 13.3132 31.1387C7.76886 31.1387 3.27503 35.6325 3.27503 41.1769C3.27503 41.1769 3.47989 46.4016 1.63614 52.4442C1.63614 52.4442 7.11658 55.722 14.7472 55.722C22.3779 55.722 27.8584 52.4442 27.8584 52.4442C26.2719 47.2456 26.2031 42.5109 26.2146 41.2867ZM24.5724 44.3153C24.5724 49.7089 20.172 54.0831 14.744 54.0831C9.31597 54.0831 4.91556 49.7089 4.91556 44.3153C4.91392 44.294 4.91719 44.2711 4.91719 44.2498H4.91392V41.1179C11.7514 40.8212 15.7109 38.5087 17.9087 36.3487C19.4001 38.1089 21.7617 40.305 24.5806 40.9638V44.2498H24.5691L24.5724 44.3153Z" fill="#F4900C"/>
<path d="M18.0241 55.7218V50.8052H11.4686V55.7218H9.82968V58.9996H19.663V55.7218H18.0241Z" fill="#FFDC5D"/>
<path d="M22.9406 54.0835H18.0239L14.7462 57.3613L12.4353 55.0504L11.4684 54.0835H8.19061C4.10486 54.0835 1.18272 56.3534 0.300995 59.0002H29.1979C28.3489 56.3747 25.6595 54.0835 22.9406 54.0835Z" fill="#EA596E"/>
<path d="M18.0244 49.1666H11.4688C11.4688 49.1666 12.1063 51.3512 14.7466 51.3512C17.3868 51.3512 18.0244 49.1666 18.0244 49.1666ZM14.7466 48.3471C14.5335 48.3471 14.3205 48.2652 14.173 48.1013C14.0091 47.9538 13.9271 47.7407 13.9271 47.5277C13.9271 47.3146 14.0091 47.1016 14.173 46.9377C14.4516 46.6591 15.0252 46.6427 15.3366 46.9541C15.4841 47.1032 15.566 47.3162 15.566 47.5293C15.566 47.7424 15.4841 47.9554 15.3202 48.1029C15.1727 48.2652 14.9596 48.3471 14.7466 48.3471Z" fill="#BF6952"/>
<path d="M18.0246 45.889C17.2691 45.889 16.6594 45.2777 16.6594 44.5238V43.1586C16.6594 42.4031 17.2707 41.7935 18.0246 41.7935C18.7802 41.7935 19.3898 42.4048 19.3898 43.1586V44.5238C19.3915 45.2777 18.7802 45.889 18.0246 45.889ZM11.4691 45.889C10.7135 45.889 10.1039 45.2777 10.1039 44.5238V43.1586C10.1039 42.4031 10.7152 41.7935 11.4691 41.7935C12.2246 41.7935 12.8343 42.4048 12.8343 43.1586V44.5238C12.8359 45.2777 12.2246 45.889 11.4691 45.889Z" fill="#662113"/>
</svg>
