<svg width="68" height="12" viewBox="0 0 68 12" fill="none" xmlns="http://www.w3.org/2000/svg">
<path fill-rule="evenodd" clip-rule="evenodd" d="M61.2582 1.36077C61.8119 1.35092 62.4003 1.29125 63.0842 1.15148C63.578 1.0503 64.0337 1.02625 64.4391 1.05536C64.8837 1.08761 65.5209 0.962252 65.9847 0.994133C66.271 1.01399 66.857 0.835658 66.5363 1.24421C66.7182 1.26673 66.9 1.28926 67.1287 1.31749C66.9349 1.50002 66.7494 1.67689 66.5577 1.85337C66.5169 1.89096 66.4034 1.95992 66.407 1.96159C66.6926 2.10321 66.0282 2.58707 66.2354 2.76531C66.3481 2.86217 66.0794 3.22746 65.8015 3.34769C65.2399 3.59064 65.071 3.84342 64.8067 4.11795C64.1465 4.49953 63.4825 4.74261 62.8011 4.93626C62.1282 5.12757 61.4188 5.38667 60.7575 5.56002C59.4152 5.91208 58.093 6.22955 56.7661 6.55524C55.3965 6.89142 54.0531 7.19136 52.7274 7.46031C51.5169 7.70609 50.2912 7.97195 49.0787 8.21939C48.3399 8.37017 47.595 8.52903 46.85 8.68803C46.8181 8.6948 46.7598 8.74017 46.6121 8.82824C46.8411 8.82216 47.1269 8.76313 47.1999 8.82554C47.2964 8.9073 47.3266 8.99948 47.6813 8.83929C47.6099 9.09596 48.3678 8.7547 48.3242 8.99145C48.6407 8.89587 48.8903 8.90547 49.0128 8.95713C49.1572 9.01749 49.201 9.11003 49.5729 8.97258C49.678 8.93366 49.8595 8.96951 49.8401 9.0262C49.7552 9.27433 50.3303 8.98638 50.3915 9.0945C50.4654 9.2254 50.6552 9.22084 51.0194 9.05443C51.1948 9.18238 51.6454 9.08225 51.9389 9.11392C52.1914 9.14147 52.4772 9.17539 52.8179 9.08827C53.0365 9.03218 53.1241 9.03021 53.2175 9.06719C53.5232 9.18735 54.0932 9.08477 54.4904 9.13296C54.8907 9.18171 55.4305 9.12017 55.9038 9.11212C56.499 9.10181 57.0914 9.09427 57.6809 9.08935C58.0348 9.08639 57.9683 9.30797 57.8512 9.51532C57.7623 9.67267 57.56 9.84075 57.8359 9.85087C57.8724 9.85239 57.7031 10.0311 57.5915 10.1763C57.4307 10.171 57.2911 10.1662 57.1509 10.1613C57.111 10.1933 57.0706 10.2253 57.0308 10.2574C57.1175 10.2873 57.2041 10.3171 57.3032 10.3515C57.2468 10.3858 57.1528 10.4613 57.0744 10.4877C56.887 10.5506 56.6818 10.618 56.5284 10.6352C55.6682 10.7317 54.7902 10.8448 53.9773 10.8942C52.609 10.9774 51.2608 11.0391 49.9503 11.0672C49.0535 11.0867 48.1732 11.089 47.2963 11.0907C46.5071 11.0922 45.739 11.0661 44.9676 11.0511C43.9784 11.0319 43.0265 10.984 42.0903 10.9217C41.495 10.8822 40.9255 10.8214 40.3458 10.769C39.9626 10.7341 39.9727 10.4801 39.8557 10.2967C39.9857 10.0647 40.3199 9.80954 40.3231 9.57533C40.3272 9.30833 41.6796 8.14954 42.301 7.80431C42.7612 7.54869 43.2587 7.42217 43.7388 7.25192C44.5796 6.95353 45.3809 6.72178 46.1193 6.6097C46.1991 6.59745 46.3317 6.56724 46.391 6.52761C46.8826 6.19831 47.1791 6.34142 47.6124 6.14035C48.0242 6.18603 48.6291 6.00183 49.1625 5.903C49.2539 5.88606 49.3453 5.90777 49.4169 5.87229C50.3533 5.40668 51.017 5.42613 51.7969 5.23567C52.0404 5.17617 52.266 5.14927 52.5146 5.07581C52.6855 5.02549 52.8811 4.92097 53.0656 4.84066C53.0566 4.77738 53.0796 4.72337 53.0448 4.72533C52.3071 4.76541 51.5258 4.84512 50.829 4.84876C49.922 4.85321 48.89 4.97681 48.0541 4.91183C47.6543 4.88098 47.0981 4.98447 46.6531 4.97765C45.8331 4.96487 44.8499 5.094 44.0556 5.06079C42.6912 5.00337 41.0348 5.20958 39.7962 5.04212C39.0197 5.22273 38.6141 5.0438 37.9247 5.13759C37.7387 5.16305 37.6169 5.11657 37.4556 5.11208C37.2213 5.10542 36.9825 5.10274 36.7376 5.10564C35.7514 5.11702 34.7595 5.13367 33.7753 5.1434C33.3601 5.14724 32.9701 5.12778 32.5483 5.13785C31.3575 5.1661 30.2515 5.11987 29.1122 5.10287C28.5196 5.09395 27.8355 5.1675 27.3924 5.03121C26.5118 5.21782 25.9881 5.0714 25.3002 5.07895C24.4687 5.08792 23.665 5.07144 22.8539 5.06168C21.8063 5.04916 20.7617 5.03414 19.7199 5.0165C19.0588 5.0051 18.4022 4.98961 17.7488 4.9713C16.9566 4.9491 16.192 4.90366 15.3832 4.89484C14.1542 4.8812 12.9986 4.80224 11.818 4.74585C10.3439 4.67559 8.86812 4.60667 7.40805 4.52446C6.60358 4.47916 5.82328 4.4133 5.0435 4.34752C4.11461 4.26915 3.17685 4.19722 2.28153 4.09192C1.6363 4.01587 1.03701 3.90506 0.318249 3.88586C0.142848 3.88106 0.191829 3.6814 0.115881 3.52751C0.305252 3.48449 0.441671 3.43944 0.537037 3.43435C0.824391 3.41879 1.09625 3.41882 1.42482 3.41159C1.62916 2.97498 0.557278 3.28549 0.809604 2.8822C1.03172 2.85945 1.27112 2.83509 1.51052 2.81072C1.56359 2.76691 1.61672 2.72325 1.66979 2.67944C1.56794 2.63005 1.46616 2.58079 1.33084 2.51527C1.69646 2.31238 2.05369 2.11414 2.54505 1.84176C2.79391 1.83656 3.29848 1.7404 3.47685 1.84426C3.69309 1.97036 4.3423 1.72267 4.39693 1.96307C4.41112 2.02567 4.91553 1.72992 4.85762 1.93122C4.79495 2.14731 5.40003 1.7416 5.364 1.92519C5.33029 2.09658 5.77841 1.8851 5.79057 1.91726C5.8691 2.11962 6.40739 1.91977 6.65445 1.97107C6.91797 2.02565 7.23829 2.04305 7.57733 2.03634C7.87967 2.03049 8.14172 2.04071 8.2776 2.16001C8.32535 2.20225 8.51179 2.21439 8.6167 2.16658C8.96733 2.00666 8.95439 2.11202 9.0508 2.17014C9.12013 2.21192 9.41875 2.11204 9.50131 2.14867C9.59715 2.19153 9.58347 2.30105 9.88914 2.12428C10.0556 2.36375 11.0544 1.95026 11.1143 2.27752C11.1202 2.30931 11.2229 2.31426 11.3029 2.2941C12.2391 2.05832 12.7258 2.23888 13.4035 2.24171C14.3909 2.24595 15.3806 2.24822 16.3614 2.25795C17.1483 2.2658 17.9402 2.26964 18.6986 2.30229C19.1015 2.3197 19.7322 2.16524 19.7991 2.44845C19.8037 2.46797 19.889 2.46406 19.945 2.44504C21.067 2.06417 21.2423 2.53954 22.059 2.4349C22.196 2.41723 22.2855 2.45855 22.4281 2.4279C23.6994 2.15401 24.4539 2.37251 25.5197 2.29592C26.3019 2.23976 26.9739 2.29381 27.707 2.28761C28.6167 2.28012 29.5414 2.25883 30.4532 2.24908C30.5451 2.24813 30.5998 2.28193 30.6632 2.3052C31.1814 2.49595 32.0764 2.36653 32.7787 2.40128C32.9336 2.40876 33.1695 2.37162 33.3858 2.29855C33.8788 2.13193 34.1897 2.17742 34.3279 2.27125C34.4744 2.37166 34.7004 2.3567 34.958 2.34389C35.4651 2.31867 35.8961 2.37331 36.5625 2.17829C37.2751 2.23475 38.1229 2.17333 38.9187 2.15035C39.5745 2.13121 40.1315 2.21658 40.9475 2.05571C41.4828 1.95042 41.8326 2.03979 42.1279 2.14087C42.2512 2.18296 42.338 2.23856 42.5521 2.19971C42.783 2.15798 43.0863 2.05062 43.2489 2.06242C43.427 2.07556 43.6217 2.0349 43.8356 2.00206C44.4367 1.90973 45.0291 1.84309 45.1882 2.11934C45.2009 2.14138 45.2302 2.16027 45.2746 2.15996C45.5951 2.15705 45.8973 2.17441 46.2526 2.13482C46.6652 2.08921 47.0086 2.13358 47.5558 1.93032C47.6154 1.90817 47.6728 1.91353 47.7259 1.91116C48.165 1.89188 48.6089 1.86832 49.039 1.85725C49.4696 1.84628 49.9791 1.74684 50.3843 1.77655C50.7546 1.804 51.2051 1.77861 51.6032 1.79211C51.8185 1.81005 51.9998 1.90952 52.2557 1.83021C53.0302 1.59012 53.2227 1.92847 53.9954 1.66683C54.3024 1.83966 55.0607 1.60911 55.4913 1.67212C55.6113 1.68974 55.7134 1.74728 55.8695 1.70635C56.7121 1.48482 57.1227 1.71154 57.9492 1.50056C58.1957 1.65799 58.7348 1.5294 59.2264 1.46243C59.5959 1.41206 59.8513 1.49154 60.1571 1.51334C60.7104 1.24906 60.862 1.44526 61.2582 1.36077Z" fill="white"/>
</svg>
