<svg width="270" height="169" viewBox="0 0 270 169" fill="none" xmlns="http://www.w3.org/2000/svg">
<g filter="url(#filter0_di)">
<path fill-rule="evenodd" clip-rule="evenodd" d="M56.3837 79.281C43.4633 87.6873 48.4279 107.679 63.7799 109.065L113.195 113.524C116.822 113.852 120.455 112.95 123.508 110.964L162.751 85.4393C175.684 77.0274 170.7 57.0149 155.332 55.6521L105.802 51.2596C102.181 50.9386 98.5581 51.8414 95.5116 53.8235L56.3837 79.281Z" fill="#C8F7A4"/>
</g>
<g opacity="0.12">
<path d="M98.9057 88.0621L101.684 86.1283L81.8539 86.247L79.5782 87.8312L78.3837 89.9829L82.6529 89.9574L83.6485 88.1534L98.9057 88.0621Z" fill="#323232"/>
<path d="M93.343 85.0918C99.2219 85.0566 105.611 83.4911 109.032 81.1094C112.453 78.7277 110.475 77.2232 104.596 77.2584C98.7169 77.2935 92.3671 78.8479 88.9457 81.2296C85.5244 83.6114 87.464 85.127 93.343 85.0918ZM93.005 81.2054C94.8098 79.9489 98.2952 79.2132 101.818 79.1921C105.364 79.1709 106.778 79.8773 104.973 81.1337C103.168 82.3901 99.6826 83.1259 96.1366 83.1471C92.6372 83.168 91.2001 82.4618 93.005 81.2054Z" fill="#323232"/>
<path d="M105.992 76.2865C111.871 76.2513 118.26 74.6858 121.681 72.3041C125.102 69.9224 123.124 68.4179 117.245 68.453C111.366 68.4882 105.016 70.0426 101.595 72.4243C98.1733 74.806 100.113 76.3217 105.992 76.2865ZM105.654 72.4C107.459 71.1436 110.944 70.4079 114.467 70.3868C118.013 70.3656 119.427 71.072 117.622 72.3284C115.817 73.5848 112.332 74.3205 108.786 74.3418C105.286 74.3627 103.849 73.6564 105.654 72.4Z" fill="#323232"/>
<path d="M113.661 67.6792C116.624 67.6615 120.339 66.6211 122.254 65.2882C124.184 63.9444 123.42 62.9308 120.457 62.9485C117.541 62.966 113.803 64.0065 111.872 65.3503C109.958 66.6832 110.745 67.6966 113.661 67.6792ZM135.5 62.5877L120.598 59.2759L117.82 61.2096L132.722 64.5215L135.5 62.5877ZM115.582 65.3281C116.115 64.9567 117.176 64.6687 117.993 64.6638C118.833 64.6588 119.055 64.9391 118.521 65.3105C118.019 65.6601 116.965 65.9589 116.125 65.9639C115.309 65.9688 115.079 65.6777 115.582 65.3281ZM133.027 60.8153C135.99 60.7976 139.705 59.7572 141.62 58.4244C143.55 57.0805 142.786 56.067 139.823 56.0847C136.907 56.1022 133.168 57.1427 131.238 58.4865C129.323 59.8194 130.111 60.8328 133.027 60.8153ZM134.947 58.4643C135.481 58.0928 136.542 57.8049 137.359 57.8C138.199 57.7949 138.42 58.0752 137.887 58.4467C137.385 58.7963 136.331 59.0951 135.491 59.1001C134.675 59.105 134.445 58.8139 134.947 58.4643Z" fill="#323232"/>
</g>
<defs>
<filter id="filter0_di" x="0.930553" y="0.0971069" width="268.706" height="221.402" filterUnits="userSpaceOnUse" color-interpolation-filters="sRGB">
<feFlood flood-opacity="0" result="BackgroundImageFix"/>
<feColorMatrix in="SourceAlpha" type="matrix" values="0 0 0 0 0 0 0 0 0 0 0 0 0 0 0 0 0 0 127 0"/>
<feOffset dx="25.7108" dy="28.4172"/>
<feGaussianBlur stdDeviation="33.8299"/>
<feColorMatrix type="matrix" values="0 0 0 0 0.153646 0 0 0 0 0.7375 0 0 0 0 0.520065 0 0 0 1 0"/>
<feBlend mode="normal" in2="BackgroundImageFix" result="effect1_dropShadow"/>
<feBlend mode="normal" in="SourceGraphic" in2="effect1_dropShadow" result="shape"/>
<feColorMatrix in="SourceAlpha" type="matrix" values="0 0 0 0 0 0 0 0 0 0 0 0 0 0 0 0 0 0 127 0" result="hardAlpha"/>
<feOffset dy="13.532"/>
<feGaussianBlur stdDeviation="27.064"/>
<feComposite in2="hardAlpha" operator="arithmetic" k2="-1" k3="1"/>
<feColorMatrix type="matrix" values="0 0 0 0 0.514063 0 0 0 0 0.895448 0 0 0 0 0.979167 0 0 0 0.25 0"/>
<feBlend mode="normal" in2="shape" result="effect2_innerShadow"/>
</filter>
</defs>
</svg>
