<svg width="92" height="18" viewBox="0 0 92 18" fill="none" xmlns="http://www.w3.org/2000/svg">
<path fill-rule="evenodd" clip-rule="evenodd" d="M81.8726 1.19644C82.6208 1.16507 83.3409 1.05049 84.0703 0.801034C84.5964 0.620481 85.1879 0.568343 85.7913 0.605351C86.4534 0.646483 87.1404 0.422102 87.8285 0.462093C88.2535 0.487081 88.789 0.176615 88.9707 0.86C89.2558 0.89224 89.5408 0.924484 89.8992 0.964866C89.9108 1.27157 89.9251 1.56868 89.9303 1.86533C89.9314 1.92852 89.8803 2.04549 89.8878 2.04816C90.4978 2.27421 90.3207 3.09134 90.8785 3.38002C91.1818 3.5369 91.3691 4.14744 91.1695 4.35356C90.7664 4.77005 90.9195 5.19208 90.9742 5.65263C90.6469 6.30074 90.1027 6.72024 89.4589 7.0586C88.8235 7.39286 88.2411 7.84007 87.5942 8.14436C86.2814 8.76233 84.9435 9.32263 83.6115 9.89664C82.2368 10.4891 80.8429 11.0211 79.426 11.5013C78.1325 11.9402 76.8488 12.4127 75.5552 12.8543C74.767 13.1235 73.9825 13.4061 73.1984 13.689C73.1647 13.701 73.1536 13.7775 73.0845 13.927C73.3908 13.9107 73.6948 13.8054 73.8907 13.9065C74.1485 14.0389 74.3309 14.1903 74.5753 13.9161C74.8687 14.3419 75.3925 13.7577 75.6938 14.1498C75.9842 13.9833 76.3431 13.9924 76.5907 14.0744C76.8819 14.1701 77.0836 14.3217 77.3865 14.0846C77.472 14.0175 77.7768 14.0717 77.8367 14.1659C78.0986 14.5779 78.4516 14.0867 78.7012 14.2636C79.0029 14.4777 79.2576 14.465 79.5055 14.1803C79.9426 14.3868 80.411 14.2092 80.8639 14.2535C81.2541 14.2921 81.6999 14.3403 82.0364 14.1871C82.2522 14.0886 82.37 14.0829 82.5552 14.1414C83.16 14.3315 83.7892 14.1466 84.4104 14.2153C85.0366 14.2849 85.6867 14.1686 86.327 14.1424C87.1317 14.1091 87.9368 14.0805 88.742 14.0563C89.2253 14.0417 89.472 14.4095 89.6272 14.7551C89.7449 15.0173 89.7226 15.3004 90.1184 15.3096C90.171 15.3111 90.2105 15.6108 90.2785 15.8536C90.0488 15.8493 89.8489 15.8452 89.6481 15.8409C89.6419 15.8948 89.6352 15.9487 89.6292 16.0028C89.7944 16.0498 89.9593 16.0967 90.1484 16.1507C90.1232 16.209 90.1087 16.3361 90.041 16.3819C89.8788 16.491 89.6989 16.6079 89.5136 16.6404C88.4752 16.8233 87.4375 17.034 86.3922 17.1377C84.6331 17.3124 82.8688 17.4511 81.1051 17.5333C79.8985 17.5898 78.6885 17.6176 77.4822 17.6443C76.3967 17.6684 75.2979 17.6462 74.2116 17.6425C72.8186 17.6378 71.4333 17.5847 70.0475 17.5073C69.1665 17.4582 68.2887 17.3734 67.4095 17.3027C66.8279 17.2556 66.4539 16.8358 66.0127 16.5361C65.8376 16.1495 65.9088 15.719 65.5556 15.3322C65.1536 14.8912 65.2484 12.9408 65.578 12.3538C65.8221 11.9191 66.3147 11.6966 66.7166 11.4024C67.4201 10.8867 68.1709 10.4822 69.0177 10.2769C69.1089 10.2545 69.2456 10.201 69.2668 10.134C69.4417 9.57679 70.069 9.80503 70.3593 9.46118C70.9967 9.52538 71.5493 9.2047 72.1337 9.02696C72.2338 8.99649 72.393 9.02986 72.4375 8.96931C73.0175 8.17491 73.9621 8.18892 74.7465 7.85314C74.9912 7.74825 75.2611 7.69768 75.4916 7.5696C75.6504 7.48183 75.7606 7.30391 75.8922 7.16626C75.7832 7.06201 75.7324 6.9722 75.6875 6.97638C74.7317 7.06269 73.7763 7.21561 72.8213 7.24063C71.5777 7.27272 70.3439 7.50497 69.0923 7.42047C68.494 7.38043 67.8854 7.56649 67.2615 7.56737C66.1116 7.56863 64.9533 7.80868 63.8076 7.77551C61.8391 7.71789 59.8706 8.10359 57.9074 7.86083C57.1127 8.18026 56.2804 7.89584 55.4732 8.06952C55.2557 8.11664 55.0169 8.04321 54.7876 8.04019C54.4544 8.0356 54.1211 8.03768 53.7879 8.04914C52.4458 8.09484 51.1038 8.14938 49.7619 8.19229C49.1955 8.20995 48.6282 8.18846 48.0621 8.21659C46.4637 8.29572 44.8684 8.24954 43.2718 8.25255C42.4412 8.25398 41.6105 8.39409 40.7916 8.18111C39.8625 8.51329 38.9171 8.28578 37.9803 8.31701C36.8477 8.35451 35.7146 8.3492 34.5817 8.35522C33.1183 8.3631 31.6553 8.3668 30.1922 8.36607C29.2635 8.36529 28.3346 8.35761 27.4059 8.34519C26.2801 8.33015 25.1566 8.27597 24.0282 8.28346C22.3131 8.29445 20.5995 8.1956 18.8859 8.13467C16.7465 8.05885 14.6068 7.98529 12.4685 7.88936C11.2904 7.8365 10.1141 7.74902 8.93873 7.66167C7.53855 7.55758 6.13599 7.46439 4.74097 7.31492C3.73537 7.20694 2.74003 7.0403 1.71986 7.0282C1.47073 7.02505 1.23339 6.69402 0.893726 6.44198C1.08908 6.36576 1.20836 6.28766 1.33205 6.27664C1.70442 6.24311 2.07923 6.23575 2.52114 6.21484C2.13616 5.48829 1.13266 6.03028 0.864706 5.35743C1.13617 5.31382 1.42899 5.26705 1.72182 5.22029C1.72808 5.1465 1.73465 5.07295 1.74092 4.99916C1.52509 4.92037 1.30958 4.84182 1.023 4.73731C1.21721 4.39231 1.40698 4.0552 1.66844 3.59202C2.00356 3.57664 2.5523 3.40409 2.95677 3.57073C3.44742 3.77306 3.96418 3.34635 4.40657 3.74184C4.52172 3.84483 4.76549 3.34269 4.99302 3.67668C5.23656 4.03521 5.45121 3.34876 5.68187 3.65291C5.8971 3.93685 6.19192 3.57539 6.25781 3.62818C6.67505 3.96019 7.11194 3.61549 7.53086 3.69347C7.97747 3.77641 8.44561 3.79641 8.90276 3.77609C9.31061 3.75817 9.68746 3.76791 10.0569 3.96121C10.1873 4.02965 10.4628 4.04461 10.5344 3.96281C10.7736 3.68917 10.9166 3.8635 11.1383 3.95685C11.2977 4.02394 11.5568 3.85087 11.7266 3.90911C11.9241 3.97727 12.0725 4.15848 12.224 3.85825C12.819 4.24914 13.5646 3.53911 14.1469 4.07789C14.2036 4.13021 14.3527 4.13559 14.4322 4.10012C15.3628 3.68524 16.3094 3.97012 17.248 3.95631C18.6157 3.93639 19.9834 3.91313 21.3504 3.90246C22.4472 3.89395 23.5447 3.87869 24.64 3.91194C25.2219 3.92969 25.8556 3.65743 26.3803 4.12327C26.4164 4.15538 26.5279 4.14659 26.5761 4.11367C27.5414 3.45412 28.5088 4.23433 29.4749 4.03926C29.6367 4.00635 29.8232 4.07214 29.973 4.01763C31.3074 3.53068 32.6811 3.87092 34.0334 3.71538C35.026 3.6013 36.0349 3.67224 37.036 3.64201C38.2787 3.60482 39.5209 3.54445 40.763 3.50347C40.8882 3.49941 41.0152 3.55372 41.1382 3.59041C42.1437 3.89128 43.1799 3.65315 44.2011 3.69138C44.4261 3.69951 44.6946 3.63175 44.8812 3.50519C45.3064 3.21661 45.8045 3.28324 46.1382 3.43441C46.4935 3.59622 46.7822 3.56535 47.1178 3.53717C47.7783 3.48169 48.4559 3.56018 49.0768 3.21996C50.1453 3.29375 51.2203 3.16921 52.2823 3.10956C53.1571 3.06007 54.0553 3.18585 54.9345 2.89795C55.5116 2.70948 56.1303 2.84752 56.6917 3.00638C56.926 3.07253 57.1306 3.16197 57.3665 3.09197C57.621 3.01677 57.8751 2.83121 58.1173 2.84626C58.3829 2.86309 58.5893 2.79064 58.834 2.73058C59.5216 2.56172 60.2365 2.43552 60.8776 2.88736C60.9289 2.92341 60.998 2.95381 61.0587 2.95208C61.4961 2.93854 61.9392 2.95895 62.3686 2.88389C62.8678 2.79733 63.4088 2.86122 63.8529 2.51066C63.9012 2.47246 63.9885 2.47974 64.0581 2.47437C64.634 2.43057 65.2099 2.37955 65.786 2.34954C66.3629 2.31968 66.9133 2.14159 67.5174 2.17959C68.0697 2.21483 68.6519 2.1606 69.2214 2.17204C69.5456 2.19579 69.9474 2.35511 70.1791 2.21716C70.8801 1.79958 71.6621 2.35304 72.3278 1.89992C73.015 2.17694 73.7083 1.77554 74.398 1.86786C74.5904 1.89369 74.819 1.9859 74.9717 1.91406C75.795 1.52527 76.7072 1.88845 77.5244 1.51753C78.1046 1.77077 78.6515 1.54372 79.2269 1.41973C79.6593 1.32646 80.1328 1.45076 80.5876 1.47842C80.9469 1.02691 81.4554 1.34675 81.8726 1.19644Z" fill="white"/>
</svg>
