<svg width="92" height="16" viewBox="0 0 92 16" fill="none" xmlns="http://www.w3.org/2000/svg">
<path d="M2.64978 8.79596C2.24437 8.42092 1.61169 8.44553 1.23664 8.85094C0.861594 9.25636 0.88621 9.88904 1.29162 10.2641L2.64978 8.79596ZM7.9057 10.704L7.91867 9.70411L7.918 9.7041L7.9057 10.704ZM35.9727 9.12103L35.9063 8.12324L35.9062 8.12324L35.9727 9.12103ZM83.3809 9.32985C83.9254 9.42251 84.4419 9.05626 84.5345 8.51181C84.6272 7.96735 84.2609 7.45087 83.7165 7.3582L83.3809 9.32985ZM79.3434 14.2232C79.026 14.6751 79.1349 15.2988 79.5869 15.6163C80.0388 15.9338 80.6625 15.8248 80.98 15.3729L79.3434 14.2232ZM90.0287 7.91803L90.7183 8.6422C90.9641 8.40815 91.0744 8.06542 91.0112 7.73196C90.9481 7.3985 90.7201 7.11983 90.4058 6.99185L90.0287 7.91803ZM80.0886 0.639684C79.778 0.182997 79.156 0.0645487 78.6994 0.375122C78.2427 0.685695 78.1242 1.30768 78.4348 1.76437L80.0886 0.639684ZM1.29162 10.2641C2.262 11.1618 3.38687 11.4995 4.51142 11.6277C5.57604 11.7491 6.80905 11.6906 7.89341 11.704L7.918 9.7041C6.64435 9.68844 5.67086 9.74695 4.73799 9.64059C3.86503 9.54106 3.2014 9.30626 2.64978 8.79596L1.29162 10.2641ZM7.89274 11.7039C17.2765 11.8256 26.8052 10.7345 36.0392 10.1188L35.9062 8.12324C26.5422 8.74758 17.1969 9.82443 7.91867 9.70411L7.89274 11.7039ZM36.0391 10.1188C51.6809 9.07731 68.0404 6.71898 83.3809 9.32985L83.7165 7.3582C68.069 4.69507 51.3225 7.09674 35.9063 8.12324L36.0391 10.1188ZM80.98 15.3729C82.0914 13.7907 83.6064 12.8859 85.358 11.9866C87.0616 11.1121 89.0671 10.2146 90.7183 8.6422L89.3391 7.19385C87.9513 8.51541 86.2843 9.26295 84.4446 10.2074C82.653 11.1272 80.754 12.2153 79.3434 14.2232L80.98 15.3729ZM90.4058 6.99185C88.9444 6.39684 86.7693 5.43303 84.7362 4.28226C82.6597 3.10695 80.8949 1.82528 80.0886 0.639684L78.4348 1.76437C79.5245 3.36677 81.6597 4.8391 83.751 6.02279C85.8856 7.23103 88.146 8.23122 89.6516 8.8442L90.4058 6.99185Z" fill="black"/>
</svg>
