<svg width="34" height="32" viewBox="0 0 34 32" fill="none" xmlns="http://www.w3.org/2000/svg">
<path d="M5.54003 0C5.21958 0 4.91226 0.127298 4.68566 0.353891C4.45907 0.580484 4.33177 0.887809 4.33177 1.20826C4.33177 1.52871 4.45907 1.83604 4.68566 2.06263C4.91226 2.28922 5.21958 2.41652 5.54003 2.41652C5.86048 2.41652 6.16781 2.28922 6.3944 2.06263C6.62099 1.83604 6.74829 1.52871 6.74829 1.20826C6.74829 0.887809 6.62099 0.580484 6.3944 0.353891C6.16781 0.127298 5.86048 0 5.54003 0ZM28.4592 0C28.1388 0 27.8314 0.127298 27.6048 0.353891C27.3782 0.580484 27.2509 0.887809 27.2509 1.20826C27.2509 1.52871 27.3782 1.83604 27.6048 2.06263C27.8314 2.28922 28.1388 2.41652 28.4592 2.41652C28.7797 2.41652 29.087 2.28922 29.3136 2.06263C29.5402 1.83604 29.6675 1.52871 29.6675 1.20826C29.6675 0.887809 29.5402 0.580484 29.3136 0.353891C29.087 0.127298 28.7797 0 28.4592 0ZM16.9996 0.585251C11.0084 0.585251 6.12528 5.46841 6.12528 11.4596C6.12528 15.4871 8.15394 18.4993 10.0214 20.7929C10.9552 21.9397 11.857 22.9295 12.4781 23.7687C13.0992 24.6079 13.3748 25.2567 13.3748 25.6425V27.167V28.3752C13.3748 29.7103 14.4562 30.7917 15.7914 30.7917C15.7914 31.1122 15.9187 31.4195 16.1453 31.6461C16.3718 31.8727 16.6792 32 16.9996 32C17.3201 32 17.6274 31.8727 17.854 31.6461C18.0806 31.4195 18.2079 31.1122 18.2079 30.7917C19.543 30.7917 20.6244 29.7103 20.6244 28.3752V25.9587V25.6897C20.6424 25.2311 20.9543 24.5449 21.5896 23.6885C22.2249 22.8321 23.1299 21.8392 24.0604 20.6962C25.9214 18.4101 27.9197 15.4292 27.874 11.4454C27.805 5.47122 22.9908 0.585251 16.9996 0.585251ZM16.9996 3.00177C21.6846 3.00177 25.4032 6.77177 25.4574 11.4737C25.4938 14.6428 23.9368 17.0195 22.1866 19.1693C21.3116 20.2442 20.397 21.2385 19.6474 22.249C18.8978 23.2594 18.2581 24.3194 18.2079 25.5953C18.2076 25.611 18.2076 25.6267 18.2079 25.6425V25.9587H15.7914V25.6425C15.7914 24.3741 15.1608 23.329 14.4226 22.3316C13.6844 21.3341 12.7738 20.3452 11.8952 19.2661C10.1379 17.1079 8.5418 14.6816 8.5418 11.4596C8.5418 6.77458 12.3146 3.00177 16.9996 3.00177ZM1.29224 10.2513C0.971794 10.2513 0.664468 10.3786 0.437875 10.6052C0.211283 10.8318 0.0839844 11.1391 0.0839844 11.4596C0.0839844 11.78 0.211283 12.0874 0.437875 12.314C0.664468 12.5405 0.971794 12.6678 1.29224 12.6678C1.61269 12.6678 1.92002 12.5405 2.14661 12.314C2.37321 12.0874 2.5005 11.78 2.5005 11.4596C2.5005 11.1391 2.37321 10.8318 2.14661 10.6052C1.92002 10.3786 1.61269 10.2513 1.29224 10.2513ZM32.707 10.2513C32.3865 10.2513 32.0792 10.3786 31.8526 10.6052C31.626 10.8318 31.4987 11.1391 31.4987 11.4596C31.4987 11.78 31.626 12.0874 31.8526 12.314C32.0792 12.5405 32.3865 12.6678 32.707 12.6678C33.0274 12.6678 33.3348 12.5405 33.5614 12.314C33.788 12.0874 33.9153 11.78 33.9153 11.4596C33.9153 11.1391 33.788 10.8318 33.5614 10.6052C33.3348 10.3786 33.0274 10.2513 32.707 10.2513ZM5.54003 20.5027C5.21958 20.5027 4.91226 20.63 4.68566 20.8565C4.45907 21.0831 4.33177 21.3905 4.33177 21.7109C4.33177 22.0314 4.45907 22.3387 4.68566 22.5653C4.91226 22.7919 5.21958 22.9192 5.54003 22.9192C5.86048 22.9192 6.16781 22.7919 6.3944 22.5653C6.62099 22.3387 6.74829 22.0314 6.74829 21.7109C6.74829 21.3905 6.62099 21.0831 6.3944 20.8565C6.16781 20.63 5.86048 20.5027 5.54003 20.5027ZM28.4592 20.5027C28.1388 20.5027 27.8314 20.63 27.6048 20.8565C27.3782 21.0831 27.2509 21.3905 27.2509 21.7109C27.2509 22.0314 27.3782 22.3387 27.6048 22.5653C27.8314 22.7919 28.1388 22.9192 28.4592 22.9192C28.7797 22.9192 29.087 22.7919 29.3136 22.5653C29.5402 22.3387 29.6675 22.0314 29.6675 21.7109C29.6675 21.3905 29.5402 21.0831 29.3136 20.8565C29.087 20.63 28.7797 20.5027 28.4592 20.5027Z" fill="white"/>
</svg>
