<svg width="918" height="301" viewBox="0 0 918 301" fill="none" xmlns="http://www.w3.org/2000/svg">
<g opacity="0.2">
<path d="M280.387 170.174C280.387 209.882 263.595 254.669 231.884 299.54L102.936 482L102.381 481.969L231.329 299.509C262.976 254.728 279.735 210.03 279.735 170.402V-89.7725L280.387 -90V170.174Z" fill="white"/>
<path d="M306.131 171.23C306.131 210.361 292.185 253.776 265.623 297.332L153.01 481.996L152.455 481.969L265.068 297.305C291.577 253.837 305.495 210.508 305.495 171.455V-73.5042L306.131 -73.7294L306.131 171.23Z" fill="white"/>
<path d="M300.196 292.694C320.622 252.033 331.235 211.524 331.235 174.218V-68.8127L330.618 -68.5981V174.433C330.618 211.664 320.026 252.092 299.641 292.672L204.75 481.567L205.306 481.589L300.196 292.694Z" fill="white"/>
<path d="M356.894 179.989C356.894 213.628 349.654 249.292 335.56 285.073L258.157 481.584L257.602 481.567L335.004 285.056C349.07 249.346 356.296 213.754 356.296 180.182V-68.609L356.894 -68.8017V179.989Z" fill="white"/>
<path d="M370.123 274.711C378.576 245.676 382.874 216.708 382.874 188.759V-72.7755L382.293 -72.6165V188.918C382.293 216.811 378.004 245.721 369.568 274.698L309.342 481.567L309.897 481.579L370.123 274.711Z" fill="white"/>
<path d="M408.215 202.693C408.215 221.472 406.516 240.528 403.141 259.603L363.86 481.574L363.305 481.567L402.585 259.595C405.954 240.558 407.65 221.541 407.65 202.798V-66.5036L408.215 -66.6095V202.693Z" fill="white"/>
<path d="M433.726 230.95L433.727 230.936V-75.7924L433.169 -75.7388V230.961L411.711 481.567L412.267 481.571L433.726 230.95Z" fill="white"/>
<path d="M459.226 -72.082V481.969H458.67V-72.082H459.226Z" fill="white"/>
<path d="M484.842 -79.1156V230.957L506.302 481.563L505.746 481.567L484.284 230.932V-79.1691L484.842 -79.1156Z" fill="white"/>
<path d="M510.362 -75.0988V202.79C510.362 221.533 512.058 240.55 515.427 259.588L554.708 481.559L554.153 481.567L514.872 259.596C511.496 240.52 509.797 221.464 509.797 202.684V-75.2047L510.362 -75.0988Z" fill="white"/>
<path d="M536.038 189.495V-81.5199L535.458 -81.6766V189.338C535.458 216.9 539.605 245.433 547.768 274.031L607.004 481.567L607.56 481.554L548.323 274.018C540.177 245.478 536.038 217.001 536.038 189.495Z" fill="white"/>
<path d="M561.479 -74.1352V180.56C561.479 213.877 568.533 249.154 582.272 284.547L658.744 481.55L658.189 481.567L581.716 284.564C567.95 249.1 560.882 213.753 560.882 180.369V-74.3264L561.479 -74.1352Z" fill="white"/>
<path d="M587.157 174.637V-75.6588L586.541 -75.8726V174.423C586.541 211.587 596.975 251.893 617.067 292.35L711.04 481.567L711.596 481.545L617.622 292.328C597.57 251.952 587.157 211.726 587.157 174.637Z" fill="white"/>
<path d="M612.836 -75.0393V171.514C612.836 210.516 626.611 253.751 652.858 297.128L764.447 481.54L763.892 481.567L652.303 297.154C626.003 253.691 612.2 210.37 612.2 171.289V-75.2642L612.836 -75.0393Z" fill="white"/>
<path d="M637.721 170.371V-78.1077L637.069 -78.3352V170.143C637.069 209.851 653.861 254.638 685.572 299.509L814.521 481.969L815.076 481.938L686.127 299.478C654.479 254.697 637.721 209.999 637.721 170.371Z" fill="white"/>
<path d="M663.716 -80.5649V170.36C663.716 209.885 683.234 255.097 719.804 300.283L866.816 481.933L866.261 481.969L719.249 300.319C682.606 255.042 663.049 209.74 663.049 170.136V-80.7895L663.716 -80.5649Z" fill="white"/>
<path d="M254.33 170.36L254.33 -80.5649L254.997 -80.7895L254.997 170.136C254.997 209.74 235.44 255.042 198.797 300.319L51.7857 481.969L51.231 481.933L198.243 300.283C234.813 255.097 254.33 209.885 254.33 170.36Z" fill="white"/>
<path d="M689.156 -83.024V171.074C689.156 210.038 711.178 255.086 752.159 299.955L918 481.527L917.446 481.567L751.605 299.995C710.541 255.037 688.475 209.898 688.475 170.856V-83.242L689.156 -83.024Z" fill="white"/>
<path d="M228.844 171.074V-83.024L229.525 -83.242L229.525 170.856C229.525 209.898 207.459 255.037 166.395 299.995L0.55442 481.567L0 481.527L165.841 299.955C206.822 255.086 228.844 210.038 228.844 171.074Z" fill="white"/>
</g>
</svg>
