<svg width="20" height="20" viewBox="0 0 20 20" fill="none" xmlns="http://www.w3.org/2000/svg">
<g opacity="0.6">
<path fill-rule="evenodd" clip-rule="evenodd" d="M15 7.08333L14.1666 7.08333V5.41667C14.1666 3.11667 12.3 1.25 9.99998 1.25C7.69998 1.25 5.83331 3.11667 5.83331 5.41667L5.83331 7.08333H4.99998C4.08331 7.08333 3.33331 7.83333 3.33331 8.75L3.33331 17.0833C3.33331 18 4.08331 18.75 4.99998 18.75H15C15.9166 18.75 16.6666 18 16.6666 17.0833V8.75C16.6666 7.83333 15.9166 7.08333 15 7.08333ZM9.99998 14.5833C9.08331 14.5833 8.33331 13.8333 8.33331 12.9167C8.33331 12 9.08331 11.25 9.99998 11.25C10.9166 11.25 11.6666 12 11.6666 12.9167C11.6666 13.8333 10.9166 14.5833 9.99998 14.5833ZM7.49998 5.41667V7.08333H12.5V5.41667C12.5 4.03333 11.3833 2.91667 9.99998 2.91667C8.61665 2.91667 7.49998 4.03333 7.49998 5.41667Z" fill="#323232"/>
</g>
</svg>
