<svg width="198" height="179" viewBox="0 0 198 179" fill="none" xmlns="http://www.w3.org/2000/svg">
<g opacity="0.12">
<path fill-rule="evenodd" clip-rule="evenodd" d="M197.096 93.1566C197.025 93.3541 196.847 93.8496 196.623 94.4731C196.821 94.5691 197.035 94.6713 197.334 94.8149C197.486 95.3658 198.323 95.9487 197.814 96.694C197.355 97.3643 198.567 98.0729 197.641 98.6168C197.798 100.023 196.808 101.037 196.156 102.02C195.565 102.911 195.421 104.024 194.526 104.798C193.748 105.471 193.311 106.54 192.721 107.437C192.208 107.461 191.731 107.481 191.07 107.51C191.19 107.891 191.279 108.177 191.42 108.627C191.242 108.827 190.95 109.157 190.634 109.514C190.829 110.115 191.013 110.68 191.229 111.344C190.921 111.694 190.616 112.042 190.283 112.422C190.545 112.516 190.791 112.603 191.209 112.752C190.731 113.092 190.338 113.371 189.925 113.664C190.005 113.759 190.13 113.905 190.325 114.133C188.917 114.658 187.663 113.395 186.11 114.005C185.151 114.698 184.438 116.11 183.013 116.632C182.463 116.834 182.934 117.842 181.991 117.724C181.656 117.682 181.904 118.762 181.118 118.552C180.824 119.53 179.952 119.924 179.263 120.54C178.691 121.05 178.169 121.716 177.709 122.382C177.325 122.936 176.916 123.473 176.509 124.011C176.142 124.499 175.71 124.947 175.408 125.472C175.15 125.919 175.172 126.683 174.824 126.885C174.356 127.157 174.036 127.45 173.937 128.081C173.476 127.807 173.195 127.64 172.913 127.471C172.034 127.901 171.153 128.31 170.278 127.235V125.001C168.595 124.052 166.836 123.224 166.049 121.081C166.11 120.374 165.767 119.372 166.447 118.545C165.46 116.572 166.317 114.902 167.268 113.257C168.412 111.277 169.914 109.587 171.674 108.03C170.639 106.477 169.557 105.029 168.675 103.469C168.068 102.396 167.397 101.225 167.364 99.998C167.329 98.726 166.929 97.3986 167.688 96.1087C168.026 95.5312 167.701 94.6947 168.081 93.9339C168.308 93.4766 168.45 92.9686 168.801 92.53C168.99 92.2936 168.982 91.8979 169.138 91.2705C169.488 90.9451 170.366 90.5065 170.55 89.8698C170.815 88.9443 171.999 89.297 171.982 88.2146C172.287 88.4464 172.423 88.5494 172.635 88.7094C173.124 88.5642 173.678 88.4004 174.256 88.2303C174.467 88.6298 174.644 88.9646 174.859 89.3719C174.435 90.139 173.972 90.9771 173.44 91.9401C174.492 91.8363 175.304 91.7551 175.997 91.6864C176.281 91.9697 176.431 92.1195 176.598 92.2865C176.314 92.8437 176.028 93.4071 175.65 94.1508C176.317 94.2195 176.835 94.2725 177.477 94.3381C177.319 95.0903 177.161 95.8449 177.006 96.5871C176.735 96.829 176.441 97.0912 176.139 97.3612C176.331 97.5524 176.409 97.6546 176.426 97.6444C176.704 97.4907 176.975 97.3229 177.305 97.1232C177.416 97.4213 177.486 97.6047 177.575 97.8419C176.973 98.147 176.401 98.4373 175.748 98.7674C176.05 98.8688 176.291 98.9492 176.735 99.0975C176.228 99.6055 175.778 100.057 175.192 100.646C175.94 101.236 176.603 101.761 177.313 102.323C178.36 102.522 179.201 102.08 180.024 101.368C181.928 99.7241 184.021 98.289 185.897 96.6362C187.818 94.9436 189.861 93.2854 191.228 91.0177C191.548 90.487 192.109 90.1031 192.592 89.6208H194.831C194.954 89.7761 195.164 90.0438 195.383 90.3185C195.138 91.0169 194.886 91.7364 194.559 92.6712C195.237 92.4847 195.788 92.3334 196.505 92.1359C196.618 92.331 196.794 92.6346 197.096 93.1566Z" fill="white"/>
<path fill-rule="evenodd" clip-rule="evenodd" d="M62.0917 137.977C61.4013 138.19 60.8342 138.367 60.101 138.594C60.2796 138.211 60.3974 137.958 60.5464 137.637C60.0581 136.901 59.5058 136.243 58.4956 136.389C58.4176 136.091 58.3677 135.899 58.2975 135.632H56.54C56.3645 135.456 56.2124 135.373 56.1726 135.252C55.9035 134.441 55.8466 133.476 55.3583 132.84C54.7295 132.021 55.0423 131.218 55.0135 130.425C54.9893 129.781 55.2491 129.122 55.4074 128.476C55.9753 126.166 56.8536 123.969 57.9722 121.88C58.661 120.596 59.4325 119.345 60.2781 118.158C61.1041 116.998 62.0722 115.939 63.0059 114.801C62.7524 114.639 62.4747 114.45 62.1861 114.279C59.3958 112.628 56.9519 110.549 54.6859 108.244C53.6164 107.156 53.6102 105.696 53.2981 104.352C53.1726 103.814 53.2779 103.222 53.2779 102.655C53.8496 101.564 55.0018 101.472 56.1196 101.027C56.4964 101.69 56.8833 102.372 57.3201 103.139C57.3965 103.083 57.5292 102.986 57.7671 102.81C57.9129 102.955 58.1696 103.095 58.2413 103.3C58.686 104.565 59.7188 105.209 60.8163 105.757C63.0496 106.873 65.3032 107.946 67.7011 109.111C68.2619 108.518 68.8228 107.608 69.6372 107.153C70.3876 106.734 70.4266 105.533 71.5967 105.648C71.4297 105.443 71.3135 105.3 71.1403 105.088C71.4992 104.837 71.8627 104.582 72.3689 104.228C72.5288 103.875 72.773 103.338 73.0117 102.811C73.3736 102.79 73.7098 102.77 74.1942 102.742C73.9883 102.477 73.8807 102.339 73.7137 102.123C74.617 101.991 74.6771 101.056 75.2458 100.553C75.8464 100.022 76.2715 99.2922 76.841 98.5618C76.9673 98.6546 77.0992 98.7514 77.3503 98.9363C77.4611 98.6757 77.5649 98.4299 77.6951 98.1216C77.8488 98.2457 77.9908 98.3596 78.2466 98.5672C78.5251 97.0728 79.3722 95.8742 80.2724 94.7965C81.1999 93.6853 82.0338 92.4094 83.5518 91.6658C83.7421 91.8226 83.9972 92.0325 84.2858 92.2698C83.6859 93.4223 83.1048 94.5648 81.8754 95.1664V96.8684C82.1664 96.7974 82.462 96.8106 82.5237 96.6967C82.7702 96.2371 82.9441 95.7384 83.0416 95.5035C84.0526 94.6701 84.8786 93.9897 85.9208 93.1313C85.9801 93.9264 86.0175 94.4454 86.055 94.9432C85.7375 95.0736 85.4957 95.1727 85.2414 95.2772C85.3069 95.3685 85.3888 95.5449 85.4325 95.5355C85.9489 95.4294 86.4598 95.2952 87.0878 95.1399C87.2656 95.4536 87.4825 95.8352 87.7009 96.2191C87.5839 96.3494 87.4442 96.504 87.2937 96.6709C87.3826 97.2874 88.1237 97.8313 87.5503 98.5376C87.3834 98.387 87.2352 98.2527 87.0839 98.1146C87.0137 98.2465 86.8771 98.3862 86.9052 98.4743C86.9832 98.7241 87.1291 98.9527 87.2929 99.2758C87.1759 100.357 86.3124 101.074 85.5113 101.804C84.7531 102.495 83.9192 103.101 82.9441 103.884C83.3451 104.114 83.6937 104.315 84.0861 104.542C83.8412 105.012 83.693 105.296 83.5369 105.594C83.6274 105.695 83.7632 105.843 83.9738 106.076C83.5112 106.15 83.1212 106.213 82.5619 106.304C82.714 106.692 82.8443 107.022 82.9948 107.406H81.5782C81.3154 107.945 81.086 108.415 80.8676 108.863C81.0704 109.082 81.2124 109.235 81.4168 109.455C80.9823 109.535 80.593 109.608 80.0267 109.714C80.164 110.076 80.2896 110.402 80.437 110.79C80.0735 110.844 79.6819 110.901 79.1718 110.976C79.3215 111.381 79.4432 111.708 79.6445 112.252C79.0906 112.036 78.6874 111.879 78.2006 111.69C77.9713 112.127 77.7373 112.574 77.5095 113.008C77.5906 113.162 77.6226 113.332 77.7185 113.384C77.8878 113.476 78.1164 113.459 78.2841 113.552C78.9354 113.916 79.0875 114.759 79.7279 115.12C80.4183 115.51 80.7186 116.18 81.1586 116.776C81.5548 117.313 81.8489 117.765 81.8045 118.445C81.7888 118.678 81.9963 118.924 82.1251 119.215C82.0127 119.407 81.852 119.679 81.6328 120.052C81.0579 120.118 80.6398 120.888 79.5907 120.482C77.7583 119.771 75.8511 119.134 73.8612 118.895C73.7504 118.881 73.6591 118.705 73.4781 118.524C72.8962 119.18 72.3182 119.832 71.5928 120.65C71.5834 120.728 71.5444 121.062 71.5015 121.424C71.0943 121.488 70.7043 121.549 70.0982 121.645C70.4983 122.206 70.7971 122.626 71.2425 123.252C70.7394 123.105 70.404 123.007 69.978 122.882C69.8899 122.987 69.7113 123.198 69.517 123.428C69.7635 124.109 69.5654 124.526 68.7674 124.979C68.5287 125.837 68.2994 126.662 68.1083 127.351C67.7479 127.483 67.5466 127.557 67.2869 127.653L67.7526 128.119C67.1168 128.606 66.3875 129 65.8945 129.592C65.449 130.125 65.2634 130.874 64.9171 131.629C64.9506 131.681 65.0902 131.89 65.3118 132.222C64.8429 132.705 64.3827 133.179 63.9396 133.635C64.112 133.85 64.2392 134.009 64.4592 134.283C64.1464 134.641 63.839 134.992 63.4966 135.383V136.624C62.9942 137.107 62.4848 137.598 62.0917 137.977Z" fill="white"/>
<path fill-rule="evenodd" clip-rule="evenodd" d="M114.408 146.458C115.391 147.647 115.392 147.649 116.584 146.99C116.618 147.371 116.606 147.702 116.688 148.008C116.746 148.225 116.931 148.409 117.049 148.593C116.898 148.745 116.797 148.845 116.669 148.973C116.966 149.112 117.25 149.245 117.715 149.463C117.232 150.152 116.775 150.801 116.32 151.451C116.907 152.508 115.665 152.695 115.486 153.261C115.211 154.135 114.148 154.323 114.118 155.257C114.083 156.346 112.966 156.481 112.48 157.115C112.059 157.667 111.31 158.027 111.214 158.731C111.381 159.018 111.514 159.245 111.732 159.619C111.102 159.975 110.554 160.286 110.004 160.598L108.677 161.225C108.274 161.701 107.87 162.177 107.331 162.812V163.23C105.973 164.228 104.705 165.162 103.232 166.245C103.653 166.46 103.908 166.59 104.331 166.806C103.746 167.625 103.154 168.454 102.518 169.344C104.152 169.901 105.689 170.426 107.275 170.968C107.118 171.283 106.986 171.549 106.806 171.91C107.513 172.162 108.174 172.397 108.928 172.667V173.592C109.402 174.028 109.818 174.41 110.249 174.806C110.275 175.307 110.299 175.784 110.324 176.241L111.095 177.012L109.138 178.641C108.677 179.155 108.196 179.059 107.68 178.717C107.523 178.613 107.303 178.554 107.113 178.558C104.916 178.606 102.931 177.769 100.932 177.038C99.4581 176.5 98.0392 175.811 96.5103 175.152C96.093 175.568 95.4432 175.883 95.3597 176.742C94.4767 176.951 93.5711 177.166 92.7239 177.367C92.2871 176.924 91.9384 176.572 91.5889 176.217C91.7216 176.071 91.8588 175.919 92.0617 175.695C91.851 175.257 91.624 174.785 91.4883 174.504C90.8307 174.605 90.2488 174.696 89.6809 174.783C89.3666 174.162 89.0842 173.601 88.7948 173.027C88.6536 173.168 88.5537 173.268 88.5171 173.305C88.0467 172.827 87.5724 172.345 86.9172 171.68C87.1208 170.204 86.1761 168.508 86.4297 166.675C86.4835 166.291 86.1894 165.736 85.8797 165.445C84.6246 164.267 84.5708 162.564 83.9811 161.115C83.7556 160.562 83.5154 159.86 83.4959 159.191C83.4631 158.129 83.3391 157.038 83.5208 156.006C83.8079 154.374 84.1168 152.634 86.0162 151.992C86.6442 151.78 87.3353 151.756 88.1629 151.619V154.938C88.8829 154.474 89.365 154.164 90.0842 153.7C90.1841 153.994 90.3042 154.343 90.4228 154.693C90.5296 154.612 90.6365 154.53 90.7434 154.449V156.407C91.1092 156.221 91.3736 156.087 91.6233 155.96C92.5258 156.75 92.5024 157.761 92.3776 158.801C92.6795 158.908 92.9252 158.995 93.3191 159.135C93.1514 159.59 92.9837 160.043 92.7809 160.59C93.0266 160.545 93.1498 160.559 93.2185 160.503C93.3839 160.372 93.4977 160.138 93.6787 160.069C95.4955 159.379 96.4097 157.447 98.2334 156.775C98.6001 155.454 99.9925 155.172 100.806 154.282C101.652 153.356 102.847 152.754 103.868 151.982C104.856 151.234 105.413 149.975 106.702 149.579C107.55 148.036 108.769 146.867 110.286 145.995C110.233 144.95 111.67 144.821 111.636 143.719H113.554C113.692 143.855 113.892 144.056 114.093 144.256C113.175 144.714 112.839 145.601 112.252 146.539C113.523 146.802 114.254 145.254 115.452 145.968C115.105 146.131 114.822 146.263 114.408 146.458Z" fill="white"/>
<path fill-rule="evenodd" clip-rule="evenodd" d="M109.473 123.964C109.374 122.969 110.774 122.86 110.111 121.933C109.942 122.084 109.791 122.218 109.64 122.351C109.59 122.301 109.504 122.256 109.495 122.2C109.338 121.157 109.401 120.169 110.14 119.319C110.954 118.385 111.761 117.444 112.541 116.483C112.787 116.179 112.939 115.799 113.182 115.372C112.797 114.367 112.268 113.326 111.81 112.292C111.318 111.18 111.328 109.976 110.793 108.876C110.509 108.292 111.251 107.268 111.077 106.553C110.881 105.753 110.41 105.073 111.099 104.319C111.113 102.21 112.546 100.896 113.8 99.4322H117.343C117.551 99.6289 117.756 99.824 118.088 100.138C117.549 100.826 117.01 101.513 116.413 102.274C116.479 102.416 116.639 102.756 116.853 103.211C117.052 103.211 117.435 103.325 117.571 103.19C118.163 102.609 118.847 102.844 119.471 102.775C119.701 103.274 119.893 103.691 120.106 104.153C119.787 104.553 119.457 104.966 118.956 105.591C119.713 105.688 120.221 105.752 120.889 105.837V107.877C122.326 107.924 122.483 106.183 123.693 106.19C124.242 105.354 125.043 104.771 125.765 104.104C126.597 103.336 127.389 102.521 128.174 101.702C128.896 100.948 129.629 100.196 130.278 99.3815C130.946 98.5418 131.52 97.6273 131.906 97.0732C132.785 96.7579 133.281 96.58 133.895 96.36C134.097 96.6464 134.427 96.9374 134.511 97.2878C134.576 97.557 134.361 97.9152 134.217 98.2063C134.052 98.5372 133.827 98.8368 133.829 99.419C134.449 99.1575 135.069 98.8953 135.752 98.6074C136.116 99.3175 136.506 100.078 137.098 101.23C137.098 101.206 137.063 101.625 137.109 102.035C137.145 102.353 137.28 102.661 137.399 103.069C137.315 103.215 137.161 103.487 137.018 103.738C137.232 103.97 137.375 104.124 137.502 104.26C136.27 106.235 135.161 108.278 133.809 110.189C132.674 111.794 132.833 111.906 132.001 112.36C132.134 112.508 132.268 112.656 132.376 112.776C130.693 114.662 129.023 116.534 127.329 118.435V119.141C128.66 119.989 129.948 120.809 131.294 121.667C131.099 122.049 130.98 122.283 130.795 122.646C131.305 123.084 131.647 123.926 132.633 123.615C132.849 124.045 133.026 124.395 133.199 124.74C133.075 124.913 132.92 125.128 132.709 125.422C133.243 125.956 133.721 126.436 134.239 126.955C134.042 127.463 133.874 127.896 133.688 128.376C133.824 128.61 133.988 128.893 134.14 129.153C134.065 129.314 134.041 129.481 133.948 129.543C133.739 129.68 133.432 129.706 133.279 129.879C132.364 130.913 132.2 130.97 131.05 130.577C129.56 130.067 127.958 129.768 126.596 129.024C124.773 128.028 123.134 126.694 121.25 125.39C120.459 125.975 119.571 126.778 118.716 127.692C117.889 128.576 116.8 129.277 115.285 129.728C115.552 129.287 115.661 129.107 115.897 128.713C114.948 128.891 114.151 129.039 113.356 129.187L113.219 128.913C113.698 128.539 114.176 128.166 114.655 127.793L113.915 127.053H112.463C112.269 126.567 112.054 126.022 111.8 125.382H110.037C109.794 124.771 109.576 124.223 109.473 123.964Z" fill="white"/>
<path fill-rule="evenodd" clip-rule="evenodd" d="M118.701 82.2058C117.971 82.3806 117.327 82.5351 116.419 82.7528C115.487 82.0637 114.372 81.2053 113.222 80.4C111.85 79.4394 110.658 78.2158 109.091 77.5392C108.729 77.3824 108.348 77.2692 107.844 77.0882C107.233 76.1728 107.162 74.4732 105.37 74.6605C104.56 73.9192 104.461 72.6316 103.276 72.5067C102.888 71.8458 102.643 71.0896 102.134 70.6175C99.8086 68.4598 98.126 65.8683 96.679 62.7414C96.5534 61.7761 96.5527 60.4893 96.3444 59.1986C96.0168 57.1657 97.0995 55.4201 98.8593 54.2933C99.3452 53.9827 99.5956 53.2999 100.403 53.3724C100.965 53.4232 101.557 53.1243 102.303 52.9409C102.524 53.1376 102.816 53.3974 103.185 53.7252C102.586 54.7326 101.451 55.3686 101.366 56.7217C102.7 57.1673 103.299 55.6838 104.642 55.513C104.806 55.6597 105.097 55.9187 105.37 56.1638C104.894 56.8778 104.573 57.3585 103.983 58.2442C104.901 57.9539 105.554 57.9492 105.795 57.6316C106.404 56.8278 107.389 56.5056 107.961 55.6113C108.494 54.7786 109.367 54.1583 110.261 53.5777C111.523 52.7575 112.547 51.5784 113.731 50.6248C115.471 49.2233 117.102 47.6876 119.041 46.5225C119.808 46.0629 120.375 45.2622 121.011 44.595C121.59 43.9879 122.51 43.7226 122.691 42.8174H125.553V44.6637C125.473 44.7433 125.199 45.018 124.868 45.3496C125.247 45.2817 125.625 45.2279 125.997 45.1436C126.374 45.0578 126.745 44.9423 127.318 44.7854C127.231 46.1596 127.297 47.3762 128.289 48.2627C128.08 48.5444 127.961 48.7051 127.721 49.0305C128.023 49.1975 128.374 49.3895 129.027 49.7477C128.355 49.9319 128.126 49.9943 127.814 50.0801C127.933 50.3517 128.092 50.6053 128.15 50.8808C128.208 51.1523 128.163 51.445 128.163 51.7235C127.374 52.8067 126.585 53.8898 125.718 55.0791C125.559 55.097 125.224 55.1337 124.731 55.1875C124.88 55.3936 124.972 55.5223 125.093 55.6893C124.966 55.9936 124.825 56.3315 124.667 56.7077C122.794 56.6172 122.781 58.547 121.624 59.2984C121.869 59.6207 121.99 59.7807 122.046 59.8541C121.276 60.625 120.499 61.4023 119.714 62.1865C119.777 62.2443 119.677 62.153 119.72 62.192C119.371 62.5408 119.01 62.9013 118.65 63.2626C118.533 63.1713 118.417 63.0808 118.3 62.9895V64.1101C118.053 63.9064 117.909 63.7878 117.587 63.5233C117.658 64.0009 117.705 64.3185 117.772 64.7648C117.24 65.4531 116.602 66.2811 115.91 67.1785C115.598 66.9506 115.386 66.7938 115.198 66.6549C114.431 67.5507 113.646 68.4692 112.853 69.3962C113.158 69.5484 113.44 69.6881 113.85 69.8918C113.468 70.3764 113.14 70.7931 112.832 71.184C112.882 71.3565 112.882 71.5157 112.96 71.6046C114.256 73.0577 115.793 74.3569 116.803 75.9848C117.941 77.8178 119.363 79.7102 118.701 82.2058Z" fill="white"/>
<path fill-rule="evenodd" clip-rule="evenodd" d="M148.217 51.4377C148.348 51.3066 148.449 51.2059 148.553 51.1021C148.476 51.0038 148.411 50.8907 148.32 50.8072C147.769 50.3038 147.072 49.8723 146.626 49.3791C146.188 48.8969 145.698 48.5293 145.255 48.0876C144.666 47.5 144.01 46.6588 143.978 45.9026C143.923 44.5495 143.841 43.1925 144.162 41.7746C144.717 39.3266 145.999 37.4732 147.696 35.7822C149.851 33.6355 151.998 31.4817 154.259 29.2202C153.401 28.4812 153.357 27.0859 151.998 26.8144C151.427 25.7039 150.858 24.5935 150.287 23.4831C149.761 22.4584 149.855 21.3527 149.861 20.2578C149.865 19.4783 149.862 18.6987 149.862 17.9191C150.579 17.0038 151.296 16.0884 152.001 15.1894H155.545C154.977 16.1594 154.491 16.9889 154.015 17.8036C155.325 18.7557 155.806 16.6932 156.958 17.3222C157.676 18.3062 156.339 18.7697 155.916 19.7217C156.733 19.5259 157.208 19.4112 157.789 19.2715C158.134 20.2828 157.962 21.1677 157.418 22.1182C157.708 22.2314 157.937 22.3203 158.281 22.4538C158.527 22.7175 158.017 22.7558 157.93 23.1444C158.272 23.6672 158.688 24.304 159.202 25.0914C162.712 21.4065 167.188 18.9367 169.925 14.7283H172.06C171.895 15.4306 171.751 16.0439 171.555 16.8828C172.148 16.6737 172.604 16.5129 173.23 16.2921V17.9433C173.571 18.0331 173.763 18.083 173.955 18.1337C174.009 18.2531 174.093 18.3694 174.108 18.4935C174.134 18.7026 174.08 18.9242 174.12 19.1295C174.553 21.3394 173.453 23.0929 172.299 24.7488C171.051 26.5405 169.602 28.1925 168.137 30.0349C169.182 31.2905 170.854 31.9007 172.325 33.0728C172.352 33.2664 172.397 33.5925 172.449 33.9679C172.839 34.4556 173.469 34.9277 173.648 35.5333C174.039 36.8607 175.008 38.0968 174.35 39.8104C174.189 39.8838 173.835 40.0578 173.472 40.2123C173.11 40.366 172.741 40.4987 172.33 40.6587C171.767 40.0859 170.495 40.2677 170.666 39.1526C169.367 38.7772 168.224 38.4464 167.116 38.1256C166.863 37.6847 166.633 37.2852 166.373 36.8334H164.023C163.964 36.5797 163.918 36.3878 163.862 36.1505C162.993 35.4818 162.263 36.2692 161.755 36.4049C161.061 37.2103 160.53 37.8267 159.942 38.5064C159.774 38.3785 159.639 38.2755 159.405 38.0983C159.154 38.4534 158.883 38.8357 158.553 39.3016C158.509 39.2447 158.616 39.3828 158.774 39.5872C157.788 39.8346 157.703 40.8256 157.269 41.6411C156.928 41.4312 156.704 41.2931 156.361 41.0816C156.302 41.4484 156.245 41.8073 156.177 42.2318C156.03 42.2716 155.839 42.3232 155.497 42.416C155.406 43.2783 155.284 44.3287 154.006 44.0423C153.577 44.5987 152.858 45.116 152.907 45.5468C153.054 46.8414 151.97 47.4602 151.674 48.4723C151.535 49.7513 151.554 49.7506 151.951 50.6051C151.025 51.3433 149.98 51.8404 148.78 52.147C148.623 51.9488 148.447 51.7288 148.217 51.4377Z" fill="white"/>
<path fill-rule="evenodd" clip-rule="evenodd" d="M23.8061 27.393C23.2764 27.4586 22.9574 27.4984 22.5549 27.5483C22.7998 27.8199 22.9395 27.9736 23.1626 28.221C22.6345 29.2034 21.6336 29.7926 20.955 30.6518L21.2873 30.9842C20.7467 31.4087 20.2054 31.8332 19.7451 32.1945C19.4908 32.8649 20.0338 33.621 19.139 34.0362C19.9316 34.5676 20.6562 35.042 21.3684 35.5337C23.6017 37.0772 25.9902 38.4015 27.8312 40.4803C28.8858 41.6704 29.8788 42.8206 29.8975 44.5296C29.9007 44.8175 30.1932 45.1016 30.4264 45.5238C29.7844 45.9303 29.183 46.3104 28.4295 46.7872C24.1836 44.2986 19.7943 42.0808 15.7684 38.8307C15.4798 38.9953 14.8495 39.1342 14.7333 39.4581C14.2723 40.741 13.369 41.6415 12.4493 42.56C12.337 42.6723 12.3791 42.9384 12.3487 43.1351C11.9547 43.1788 11.6201 43.2147 11.1091 43.2709C11.2074 43.6072 11.2909 43.8928 11.4368 44.393C10.6177 45.079 10.0062 46.0997 9.68399 47.367C9.49678 48.1028 8.79161 48.706 8.15976 49.5949V54.2193C7.75725 54.245 7.42183 54.2661 7.04195 54.2903C6.96004 54.5205 6.87267 54.7671 6.76815 55.0628H5.30164C5.07231 54.398 4.83751 53.7159 4.56605 52.9301C4.15808 53.1096 3.7509 53.2883 3.2657 53.5013C3.16585 53.1923 3.08707 52.9504 3.00828 52.7085C2.88815 52.6585 2.75555 52.5477 2.64712 52.568C1.74693 52.7389 1.13069 51.9773 1.01992 51.4927C0.568272 49.52 -0.707897 47.5691 0.517569 45.4512C0.540191 43.3536 1.8421 41.7531 2.58003 39.9286C2.82107 39.3332 3.85698 39.4378 3.57616 38.4093C3.46071 37.9863 4.22829 37.316 4.60583 36.7658C4.94828 36.2672 5.27044 35.7498 5.66437 35.2949C6.12694 34.7603 6.69014 34.3124 7.14881 33.7755C7.53026 33.3276 7.82434 32.8055 8.19799 32.2562C5.61289 30.3139 4.03171 27.5545 2.21965 24.9817C1.63851 22.4924 0.634577 20.0748 1.02616 17.1602C1.62447 16.4727 2.3897 15.5925 3.21266 14.6475C4.12376 14.8348 5.14797 14.2698 5.98029 15.2195C5.43503 15.9546 4.89368 16.6842 4.34686 17.4216C4.49741 17.5808 4.63704 17.7307 4.77511 17.8774C5.92959 18.1161 6.35238 16.4353 7.55834 16.8247C7.73775 17.1727 7.91639 17.5215 8.1036 17.8836C7.73229 18.1216 7.30716 18.3947 6.86097 18.6803C7.13321 18.9535 7.33369 19.154 7.53416 19.3546C8.13636 18.7311 8.7214 18.7233 9.42891 19.5762C9.36495 20.0514 9.73313 20.7381 9.0225 21.2914C9.31736 21.4334 9.60598 21.5723 10.0186 21.7698C9.67931 22.2263 9.37821 22.6305 9.07009 23.0449C9.35715 23.1471 9.60364 23.2337 10.1193 23.4171C9.64499 23.5451 9.42033 23.6052 9.02718 23.7113C9.06853 24.057 8.98584 24.5299 9.18242 24.7944C9.99679 25.89 10.8954 26.9225 11.8588 28.0938C12.3892 27.6177 12.7964 27.2635 13.1903 26.8959C15.518 24.725 17.4658 22.1217 20.3528 20.5844C20.3372 19.7845 21.1742 19.8407 21.5346 19.4123C21.9425 18.9277 22.3958 18.4814 22.6883 18.1684H24.1181C23.4699 19.1228 22.3653 19.662 22.7257 21.037C23.6493 20.4861 24.5534 19.9469 25.6548 19.2906C25.5565 19.9203 25.4801 20.4057 25.3943 20.9574C25.7796 21.1517 26.3522 21.4428 26.9669 21.7534C26.8085 22.0819 26.6759 22.3558 26.5215 22.6765C26.7438 22.7234 26.9372 22.7632 27.1393 22.8053C27.1603 22.888 27.2415 23.0293 27.2025 23.0815C26.6845 23.7807 25.991 24.3988 25.6611 25.1737C25.2476 26.146 24.3358 26.5838 23.8061 27.393Z" fill="white"/>
<path fill-rule="evenodd" clip-rule="evenodd" d="M62.6383 49.1157C64.3334 47.0352 65.7648 45.306 67.1665 43.5525C68.4942 41.8919 69.6292 40.0987 70.6612 38.2609C70.5293 38.0978 70.4014 37.9402 70.1822 37.6702C70.5426 37.2613 70.8991 36.8555 71.2774 36.4255H72.6792C73.2034 36.9499 73.6254 37.6983 74.2252 37.8895C74.9577 38.122 75.0614 38.7081 75.3571 39.1459C76.3821 40.6621 77.095 42.201 76.3072 44.1768C75.8228 45.3918 75.3321 46.6076 74.8282 47.8172C74.6769 48.1816 74.5661 48.5632 74.3734 49.118L73.2993 50.1933V51.5324C72.4584 53.0565 71.7587 54.3269 70.9927 55.7159C72.0512 56.4354 73.0263 57.1291 74.031 57.7768C76.0217 59.0605 77.6684 60.6548 78.652 62.8452C78.8634 63.3166 78.9602 63.8402 79.1801 64.5761C79.1045 64.7438 78.9196 65.1566 78.7152 65.6092C78.2768 65.8137 77.8033 66.0345 77.4336 66.2062C76.4336 65.8605 75.549 65.6022 74.7034 65.2503C73.857 64.8991 73.0497 64.4543 72.2252 64.0509C72.0848 62.8187 70.6807 63.3166 70.1026 62.4785C69.6284 61.7902 68.5737 61.5038 67.6486 60.9646C64.8763 63.7941 62.4347 66.8851 60.1944 70.1408C60.022 70.3905 60.0774 70.797 60.0275 71.1302C59.0508 71.8825 58.0851 71.7678 57.1163 71.0842V70.4076C55.8573 69.653 54.6771 68.946 53.3861 68.1719C52.7683 67.4478 53.0826 66.31 52.6801 65.4298C52.2316 64.4496 52.6107 63.5007 52.4406 62.7797C53.8479 59.6419 55.5133 56.8935 57.8979 54.522V53.0736C56.5196 52.113 55.663 50.6155 54.7956 49.1469C54.5047 48.6545 54.4594 48.0115 54.326 47.4324C54.0554 46.2541 53.6505 45.114 53.6864 43.8623C53.7558 41.4682 55.1147 39.76 57.3995 38.9008C58.8402 38.3593 60.2396 38.6316 61.7888 38.4794C60.9549 40.2064 58.9572 40.0589 57.7895 41.5064C59.8036 41.4175 61.0306 39.5197 63.0845 39.8817C63.0049 40.3656 62.9254 40.8502 62.8411 41.3605C63.2179 41.4932 63.7709 41.689 64.3029 41.8779V44.5803C63.7553 45.5362 63.1539 46.4898 62.6633 47.498C62.5049 47.8218 62.6383 48.2885 62.6383 49.1157Z" fill="white"/>
<path fill-rule="evenodd" clip-rule="evenodd" d="M98.5878 22.624C97.7914 23.6229 97.0644 24.5359 96.2601 25.5441V28.2746C95.5121 28.575 94.7843 28.8684 93.9621 29.1985C92.9902 28.2543 92.5962 27.0018 92.285 25.818C91.8684 25.9733 91.5003 26.1099 90.9534 26.3128C90.5244 25.6955 90.0025 25.15 89.721 24.5008C88.8785 22.5554 88.9456 20.4781 89.0376 18.5233C89.391 17.718 89.7061 16.9985 90.0993 16.1003C89.5111 16.0121 88.99 16.094 88.774 15.8755C87.3995 14.4857 86.043 13.0717 84.7832 11.5789C84.1046 10.7736 83.3885 9.8629 83.1178 8.882C82.7231 7.44614 82.7137 5.90416 82.5273 4.30053C83.1747 3.38986 83.7013 2.32312 84.5234 1.58802C85.2793 0.912234 86.3542 0.59385 87.5196 0C87.7911 0.294194 88.0555 0.579023 88.3231 0.868535C88.1671 1.01836 86.0898 3.01997 86.0898 3.01997C86.2396 3.17058 86.3901 3.32119 86.6117 3.54203C87.5625 2.84829 88.5095 1.94074 90.0556 2.53927C89.6718 3.06523 89.373 3.47414 88.8481 4.19284C89.5579 3.91582 89.9542 3.76209 90.5033 3.54827C90.7623 3.93845 91.04 4.3575 91.377 4.86629C90.7904 5.4539 90.3294 5.91509 89.7732 6.47226C90.132 6.54561 90.3255 6.58619 90.6469 6.65252C90.1648 7.46565 90.437 8.59014 89.1944 9.00529C90.4277 10.5231 91.8006 11.3596 93.1938 12.2851C97.8834 8.39505 102.471 4.58926 107.12 0.732753H109.172C108.813 1.4538 108.527 2.02892 108.238 2.61107C108.854 3.08162 109.342 2.55332 109.888 2.31609C111.465 3.78862 111.836 5.62714 111.512 7.67791C110.857 8.51913 110.183 9.38298 109.496 10.2648C109.541 10.3054 109.643 10.4006 109.924 10.6604C109.545 10.7088 109.181 10.7556 108.816 10.8024C108.959 10.9554 109.101 11.1091 109.244 11.2629H108.452C106.994 14.0074 104.53 15.8748 102.726 18.375C105.199 19.7531 107.966 20.7785 110.582 22.3384C110.662 22.7317 110.751 23.1781 110.857 23.7056C111.178 23.3654 111.419 23.1102 111.651 22.8644C112.704 23.0064 112.683 24.2175 113.566 24.6608C114.34 25.0494 114.792 26.081 115.394 26.838V29.3647C115.19 29.5692 114.989 29.7697 114.708 30.0507C112.518 29.8166 110.707 28.568 108.712 27.5582C108.672 27.5949 108.523 27.7291 108.459 27.7876C107.063 27.4427 106.231 25.9444 104.621 26.1684C103.87 25.2031 102.636 25.1282 101.674 24.5593C100.701 23.985 99.7587 23.3615 98.5878 22.624Z" fill="white"/>
<path fill-rule="evenodd" clip-rule="evenodd" d="M160.54 56.6251C160.979 56.8733 161.324 57.0683 161.831 57.3547C161.716 58.0477 161.599 58.7461 161.456 59.6061C161.813 60.2257 162.111 61.1691 163.193 61.5499C163.678 60.8741 163.975 60.1008 164.907 59.7231C165.562 59.457 165.946 58.5245 166.448 57.8869C166.999 57.1854 167.765 56.7063 168.2 55.8518C168.565 55.1331 169.35 54.6414 169.845 53.9719C170.356 53.2797 170.743 52.4955 171.184 51.7526H173.581C173.708 52.4252 173.915 53.0901 173.124 53.7846C173.807 53.8158 174.336 53.84 174.819 53.8619C175.035 54.8545 175.23 55.7534 175.422 56.6321C175.078 56.7671 174.833 56.8623 174.546 56.9747C174.576 57.1698 174.571 57.3735 174.641 57.5467C175.234 59.0114 175.137 59.514 173.997 60.6447C173.521 61.116 173.322 61.8496 173.516 62.3076C173.82 63.0271 172.907 62.7501 173.338 63.4142C172.881 63.0373 172.737 62.9187 172.489 62.7142V63.8996C172.04 63.9862 171.652 64.0603 171.19 64.1485V65.312C170.645 65.8793 170.262 66.2804 169.942 66.6144C170.684 67.3409 171.368 68.0105 171.936 68.5684V70.1713C172.395 70.6301 172.875 71.11 173.366 71.6032C173.213 71.8748 173.116 72.0457 172.945 72.3461C173.168 72.7987 173.442 73.3559 173.795 74.0746C173.385 74.9314 172.932 75.878 172.501 76.777H170.728C168.662 75.5947 166.66 74.4468 164.663 73.3028C164.309 73.8499 164.027 74.2853 163.789 74.6544C163.42 74.4749 163.136 74.336 162.648 74.098V76.0786C162.001 75.8374 161.548 75.6689 160.701 75.3536C161.051 75.8312 161.147 75.9615 161.331 76.2128C160.941 76.5795 160.528 76.9674 159.875 77.5807C159.744 76.7887 159.662 76.2924 159.572 75.7461C159.871 75.6431 160.113 75.5596 160.42 75.4527C160.451 75.2927 160.487 75.0992 160.532 74.8628C160.263 74.7691 160.015 74.6848 159.767 74.599C159.859 74.2229 159.952 73.8436 160.109 73.2006C159.715 73.5619 159.563 73.7016 159.473 73.7843C158.567 73.6142 157.71 73.4542 156.808 73.2857C156.669 73.0188 156.489 72.6707 156.276 72.2634C156.437 71.6407 156.619 70.9337 156.804 70.2126C157.22 70.2813 157.748 70.3695 158.276 70.4569C158.298 70.3789 158.319 70.3008 158.341 70.222C157.79 69.945 157.239 69.6679 156.753 69.4237C157.038 68.8353 157.321 68.2493 157.616 67.639C156.217 65.2613 154.692 63.017 153.83 60.434C153.312 58.6548 153.925 56.8967 154.181 55.1455C154.38 53.7838 155.505 52.8209 156.737 52.1318C156.912 52.0335 157.079 51.9203 157.359 51.7455H159.475C159.809 52.0795 160.109 52.3807 160.32 52.5922C159.904 53.0089 159.48 53.4319 159.229 53.6824V54.9918C159.698 54.8701 160.148 54.7538 160.663 54.6204C160.933 54.8724 161.18 55.1042 161.523 55.4249C161.163 55.865 160.866 56.2279 160.54 56.6251Z" fill="white"/>
<path fill-rule="evenodd" clip-rule="evenodd" d="M32.6015 78.483C32.8417 78.7233 33.0422 78.9239 33.3261 79.2079C32.0227 80.3231 30.7262 81.4312 29.4305 82.54C29.4594 82.615 29.4891 82.6899 29.5187 82.764C29.7941 82.6836 30.1303 82.6766 30.3307 82.508C30.7052 82.1943 31 81.7878 31.5141 81.6863C32.4228 81.1736 33.3316 80.6602 34.2154 80.1607C34.9861 80.7842 34.4237 81.2766 34.0922 82.0328C34.5969 81.8416 34.9237 81.7175 35.2755 81.5833C35.4292 81.737 35.6296 81.9376 35.8309 82.1389C35.8317 82.9887 35.8317 83.8393 35.8317 84.7001C35.5836 84.942 35.3309 85.1901 35.0633 85.4508C35.1023 85.5491 35.1125 85.6849 35.185 85.7379C35.6686 86.1008 36.1515 86.4683 36.6617 86.7914C37.21 87.1379 37.9776 87.2378 37.9987 88.125C38.001 88.2273 38.1742 88.3428 38.2881 88.4231C38.7257 88.7314 39.2382 88.9647 39.5947 89.3463C39.9504 89.7263 40.1524 90.2499 40.512 90.8649C40.512 91.2246 40.512 91.7919 40.5112 92.3585C40.1594 92.7096 39.8092 93.0608 39.5159 93.3542C36.8333 92.3951 34.1819 91.4478 31.5312 90.5004C30.9423 90.8149 30.3081 91.1528 29.6731 91.4907C29.6466 91.4478 29.6201 91.4049 29.5936 91.3619C29.0421 91.9129 28.4906 92.4646 27.7862 93.1692C27.7761 93.337 27.7558 93.6663 27.73 94.0862C26.613 95.1607 25.4437 96.2868 24.5006 97.1951C24.0271 98.6645 24.2674 100.174 22.3102 100.484C21.9054 99.8358 20.4513 99.732 20.7829 98.222C20.3804 98.1058 19.8858 97.9614 19.3468 97.8053C19.2251 97.8873 19.0059 98.034 18.8351 98.1479C18.2875 97.5689 17.8093 97.0616 17.1143 96.3258C16.959 94.9984 16.7601 93.2996 16.5511 91.5118C18.3179 89.6007 20.059 87.7177 21.9061 85.7192C21.1838 85.2666 20.4389 84.8881 19.8008 84.377C19.1409 83.8479 18.5847 83.1893 17.9661 82.5705C18.1369 82.0188 18.3109 81.4561 18.4981 80.8482C18.1517 80.7296 17.9045 80.6446 17.5971 80.5384V79.101C17.7157 78.9816 17.8662 78.8318 18.0402 78.657C18.6486 78.536 19.2875 78.4088 20.0769 78.2512C22.1784 79.4311 24.4764 80.721 26.7121 81.9751C28.9539 81.1221 30.4072 79.1549 32.6015 78.483Z" fill="white"/>
</g>
</svg>
