<svg width="41" height="28" viewBox="0 0 41 28" fill="none" xmlns="http://www.w3.org/2000/svg">
<path fill-rule="evenodd" clip-rule="evenodd" d="M33.8929 1.8087C34.2819 1.6341 34.3475 1.26412 34.5601 1.01198C34.6837 0.865108 34.9431 0.651672 35.0036 0.760383C35.4314 1.53134 36.6802 1.43079 36.8114 2.48558C37.3458 6.76615 39.1317 10.7261 39.9974 14.9217C40.0585 15.2169 40.1387 15.5074 40.2027 15.8019C40.574 17.5016 40.5734 17.5017 38.9071 17.4778C37.1926 17.4534 37.0646 17.3842 36.4216 15.6902C35.0857 12.1709 33.7688 8.64365 32.6346 5.05286C32.2806 3.9331 32.0389 2.78192 32.4965 1.6237C32.6188 1.31352 32.7766 1.00413 32.9803 0.743391C33.1593 0.514743 33.4283 0.249234 33.7466 0.404162C34.0772 0.565316 33.8331 0.861887 33.7802 1.10091C33.7321 1.31966 33.6668 1.53889 33.8929 1.8087Z" fill="#323232"/>
<path fill-rule="evenodd" clip-rule="evenodd" d="M17.1837 7.69585C18.4045 8.52454 19.1415 9.74501 19.824 11.0089C21.3057 13.754 22.338 16.7174 23.9052 19.4219C24.2081 19.9447 24.0654 20.177 23.4207 20.3206C21.5472 20.7371 20.6748 19.5344 19.9175 18.2211C18.3976 15.5848 16.9524 12.906 15.4627 10.2528C15.0766 9.56512 14.6461 8.90223 14.2221 8.23645C13.9774 7.85135 14.1026 7.51742 14.3281 7.1945C14.5615 6.86044 14.8344 6.90156 15.2113 7.0117C15.8817 7.20728 16.5783 7.30924 17.1837 7.69585Z" fill="#323232"/>
<path fill-rule="evenodd" clip-rule="evenodd" d="M5.01877 25.2517C3.68993 24.4685 2.35787 23.6915 1.03507 22.8989C0.61412 22.6464 0.169261 22.3799 0.359864 21.7547C0.53427 21.1839 1.00957 21.4102 1.39126 21.3467C2.12759 21.2239 2.81675 21.3729 3.48623 21.6401C6.39938 22.8009 9.17544 24.1991 11.5442 26.3054C11.8001 26.5337 12.1116 26.7076 12.0495 27.109C11.9797 27.5627 11.5622 27.4512 11.2768 27.5863C9.94495 28.2178 8.8978 27.6011 7.82802 26.9248C6.90695 26.343 5.95338 25.8122 5.01456 25.2589L5.01877 25.2517Z" fill="#323232"/>
</svg>
