<svg width="21" height="20" viewBox="0 0 21 20" fill="none" xmlns="http://www.w3.org/2000/svg">
<path d="M10.5 0C4.98867 0 0.5 4.48867 0.5 10C0.5 15.5113 4.98867 20 10.5 20C16.0113 20 20.5 15.5113 20.5 10C20.5 4.48867 16.0113 0 10.5 0ZM10.5 2C14.9307 2 18.5 5.56933 18.5 10C18.5 14.4307 14.9307 18 10.5 18C6.06933 18 2.5 14.4307 2.5 10C2.5 5.56933 6.06933 2 10.5 2ZM10.5 4C7.186 4 4.5 6.686 4.5 10C4.5 13.314 7.186 16 10.5 16C13.814 16 16.5 13.314 16.5 10C16.5 9.081 16.287 8.21355 15.918 7.43555L10.6465 12.707C10.4585 12.895 10.2045 13 9.93945 13C9.67445 13 9.41942 12.895 9.23242 12.707L6.7793 10.2539C6.3883 9.86291 6.3883 9.23084 6.7793 8.83984C7.1703 8.44884 7.80236 8.44884 8.19336 8.83984L9.93945 10.5859L14.7559 5.77148C13.6689 4.67748 12.164 4 10.5 4Z" fill="#30C18B"/>
</svg>
